<?xml version="1.0" encoding="utf-8"?>
<!-- Generator: Adobe Illustrator 25.0.0, SVG Export Plug-In . SVG Version: 6.00 Build 0)  -->
<svg version="1.1" xmlns="http://www.w3.org/2000/svg" xmlns:xlink="http://www.w3.org/1999/xlink" x="0px" y="0px"
	 viewBox="0 0 24 24" style="enable-background:new 0 0 24 24;" xml:space="preserve">
<style type="text/css">
	.st0{fill:#154360;}
	.st1{fill:#00A896;}
</style>
<g id="Layer_1">
	<path class="st0" d="M21.9,10.3c0.1,0.6,0.1,1.1,0.1,1.7c0,6.1-4.9,11-11,11S0,18.1,0,12S4.9,1,11,1c2.3,0,4.5,0.7,6.3,2l-1.4,1.5
		C14.5,3.5,12.8,3,11,3c-5,0-9,4-9,9s4,9,9,9c4.9,0,8.9-3.9,9-8.8C20,12.2,21.9,10.3,21.9,10.3z M20.9,2.2l-9.4,9.6L7.7,8.2
		l-3.1,3.1l6.9,6.7L24,5.3C24,5.3,20.9,2.2,20.9,2.2z"/>
</g>
<g id="Layer_2">
	<polygon class="st1" points="7.7,8.2 4.6,11.3 11.5,18 24,5.3 20.9,2.2 11.5,11.8 	"/>
</g>
</svg>
