<?xml version="1.0" encoding="utf-8"?>
<!-- Generator: Adobe Illustrator 25.0.0, SVG Export Plug-In . SVG Version: 6.00 Build 0)  -->
<svg version="1.1" xmlns="http://www.w3.org/2000/svg" xmlns:xlink="http://www.w3.org/1999/xlink" x="0px" y="0px"
	 viewBox="0 0 24 24" style="enable-background:new 0 0 24 24;" xml:space="preserve">
<style type="text/css">
	.st0{fill:#154360;}
	.st1{fill:#00A896;}
</style>
<g id="Layer_1">
	<path class="st0" d="M20,12.2V21c0,0.6-0.4,1-1,1H1c-0.6,0-1-0.4-1-1V3c0-0.6,0.4-1,1-1h17.3l-2,2H3C2.4,4,2,4.4,2,5v14
		c0,0.6,0.4,1,1,1h14c0.6,0,1-0.4,1-1v-4.8L20,12.2z M20.9,2.2l-9.4,9.6L7.1,7.6L4,10.7l7.5,7.3L24,5.3C24,5.3,20.9,2.2,20.9,2.2z"
		/>
</g>
<g id="Layer_2">
	<polygon class="st1" points="4,10.7 11.5,18 24,5.3 20.9,2.2 11.5,11.8 7.1,7.6 	"/>
</g>
</svg>
