<?xml version="1.0" encoding="utf-8"?>
<!-- Generator: Adobe Illustrator 25.0.0, SVG Export Plug-In . SVG Version: 6.00 Build 0)  -->
<svg version="1.1" id="Layer_1" xmlns="http://www.w3.org/2000/svg" xmlns:xlink="http://www.w3.org/1999/xlink" x="0px" y="0px"
	 viewBox="0 0 1600 1200" style="enable-background:new 0 0 1600 1200;" xml:space="preserve">
<style type="text/css">
	.st0{fill:#F5F6F8;}
	.st1{fill:#00A896;}
	.st2{fill:#161616;}
	.st3{fill:#FFFFFF;}
	.st4{fill:#161616;stroke:#161616;stroke-width:2;stroke-miterlimit:10;}
	.st5{opacity:0.11;fill:#666666;enable-background:new    ;}
	.st6{opacity:0.12;fill:#666666;enable-background:new    ;}
	.st7{opacity:0.17;fill:#666666;enable-background:new    ;}
	.st8{opacity:0.16;fill:#666666;enable-background:new    ;}
	.st9{opacity:0.22;fill:#666666;enable-background:new    ;}
	.st10{fill:#154360;}
	.st11{fill:#0D1321;}
	.st12{opacity:0.14;fill:#666666;enable-background:new    ;}
	.st13{opacity:0.2;fill:#212121;enable-background:new    ;}
	.st14{opacity:0.16;fill:#212121;enable-background:new    ;}
	.st15{opacity:0.22;fill:#212121;enable-background:new    ;}
	.st16{opacity:0.15;fill:#666666;enable-background:new    ;}
</style>
<g>
	<g id="ground">
		<g>
			<g>
				<path class="st0" d="M133.9,851c176.2,0,352.3,0,528.5,0c175.3,0,350.6,0,525.8,0c98.9,0,197.7,0,296.6,0c1.9,0,1.9-3,0-3
					c-176.2,0-352.3,0-528.5,0c-175.3,0-350.6,0-525.8,0c-98.9,0-197.7,0-296.6,0C132,848,132,851,133.9,851L133.9,851z"/>
			</g>
		</g>
		<g>
			<g>
				<path class="st0" d="M506.8,846.8c-10.2-4.7-18.9-12.2-24.7-21.9c-2.7-4.5-5-9.6-6.2-14.7c-1.1-5.1,0.9-10.3,6.9-9.5
					c3.9,0.5,7,3.1,9.8,5.5c0.6-0.8,1.2-1.6,1.8-2.4c-6.5-4.2-11.6-10-14.7-17.1c-2.1-4.9-7-20.4,1.4-21.9c1-0.2,1.3-1.4,0.9-2.2
					c-8-16.5-9.9-34.9-11.6-52.9c-0.8-8.6-1.6-19,5.1-25.6c7.9-8,18.8-2.4,25.4,4.4c12.3,12.7,18.7,30.8,25.2,46.9
					c6.8,16.9,12.7,34.1,17,51.7c4.9,20.4,7.5,41.3,6.4,62.2c-0.1,1.9,2.9,1.9,3,0c2.2-42.8-10.7-84.3-27-123.3
					c-6.7-16-14.3-36.6-30.1-45.8c-6.1-3.5-13.5-4.5-19.5-0.3c-6.1,4.3-8.4,11.9-8.8,19c-0.5,10.9,1.4,22.4,3.1,33.1
					c1.7,11.1,4.5,22,9.4,32.1c0.3-0.7,0.6-1.5,0.9-2.2c-8.8,1.6-7,14.3-5.3,20.4c2.7,10,9.2,18.5,17.9,24.1
					c1.4,0.9,3.1-1.3,1.8-2.4c-4.8-4-10.9-8.5-17.4-5.6c-6.9,3.1-5,11.1-3,16.8c5.2,15.1,16.6,27.5,31,34.1
					C507,850.2,508.6,847.6,506.8,846.8L506.8,846.8z"/>
			</g>
		</g>
		<g>
			<g>
				<path class="st0" d="M538.7,759.8c-3.2-23.9-2.2-47.3,5.3-70.3c3.6-11.1,7.4-22.1,11.1-33.1c3-8.9,8.3-25.4,21-17.7
					c9.1,5.5,10.8,20.1,12.9,29.6c2.6,11.6,4.4,23.3,5.5,35.2c2.1,22.4,1.8,45.1-0.6,67.5c-2.8,26.4-8.3,52.5-15.8,77.9
					c-0.5,1.9,2.3,2.6,2.9,0.8c14.5-49.3,21.8-101.4,15.8-152.6c-1.4-12.4-3.6-24.7-6.6-36.7c-2.3-9-4.7-20.3-13.8-24.9
					c-7.5-3.7-14.7-0.1-18.7,6.7c-2.3,3.9-3.6,8.4-5.1,12.6c-2.2,6.6-4.4,13.1-6.6,19.7c-4.4,13.2-9.1,26.2-10.9,40.1
					c-1.9,15-1.3,30.2,0.7,45.2C535.9,761.7,538.9,761.7,538.7,759.8L538.7,759.8z"/>
			</g>
		</g>
		<g>
			<g>
				<path class="st0" d="M478.6,682.2c28.8,51.3,51.5,107.1,56.7,166.3c0.2,1.9,3.2,1.9,3,0c-5.3-59.7-28-115.9-57.1-167.8
					C480.3,679,477.7,680.5,478.6,682.2L478.6,682.2z"/>
			</g>
		</g>
		<g>
			<g>
				<path class="st0" d="M570.4,637.3c2.4,17.5,1.5,35.2,0.8,52.8c-0.7,17.3-1.4,34.6-2.1,52c-1.4,35.2-2.3,70.7-8.8,105.4
					c-0.3,1.9,2.5,2.7,2.9,0.8c6.5-35,7.5-70.7,8.9-106.2c0.7-18,1.5-36,2.2-53.9c0.7-17.2,1.4-34.5-1-51.6
					C573.1,634.6,570.2,635.5,570.4,637.3L570.4,637.3z"/>
			</g>
		</g>
		<g>
			<g>
				<path class="st0" d="M541.7,687.8c12.7,17.1,21.8,36.5,26.6,57.2c0.4,1.9,3.3,1.1,2.9-0.8c-4.9-21-14-40.7-26.9-58
					C543.2,684.7,540.6,686.2,541.7,687.8L541.7,687.8z"/>
			</g>
		</g>
		<g>
			<g>
				<path class="st0" d="M589.4,667c-8.1,14.7-14.5,30.2-19.2,46.4c-0.5,1.9,2.4,2.7,2.9,0.8c4.6-15.9,11-31.2,18.9-45.7
					C592.9,666.9,590.3,665.3,589.4,667L589.4,667z"/>
			</g>
		</g>
		<g>
			<g>
				<path class="st0" d="M480.8,764.5c21.1,8.6,38.6,24.3,49.7,44.2c0.9,1.7,3.5,0.2,2.6-1.5c-11.5-20.6-29.7-36.6-51.5-45.5
					C479.8,760.8,479.1,763.7,480.8,764.5L480.8,764.5z"/>
			</g>
		</g>
		<g>
			<g>
				<path class="st0" d="M509,697c-1.8,17.1-1,34.2,2.2,51.1c0.4,1.9,3.3,1.1,2.9-0.8c-3.1-16.6-3.8-33.5-2.1-50.3
					C512.2,695.1,509.2,695.1,509,697L509,697z"/>
			</g>
		</g>
		<g>
			<g>
				<path class="st0" d="M152.3,847.4c-2.3-6.7-4-13.7-4.8-20.8c-0.3-3-0.5-6-0.5-9.1c0-1.6-0.3-3.9,0.1-5.4c0-0.6,0.1-1.2,0.1-1.8
					c1.9-1.4,3.5-1.2,4.8,0.5c0.9,0.8,2.7,0.3,2.6-1.1c-0.3-4.1-0.3-8.2,0.2-12.3c0.3-2,0.6-4,1.1-5.9c0.2-0.7,2.6-7.5,2.8-7.2
					c0.7,1,2.4,1,2.7-0.4c4.3-17.7,12-34.2,21.4-49.7c2.4-4,5-8,7.6-11.9c2.9-4.3,7.7-11.1,12.1-3.6c4.5,7.6,5.8,18.7,6.2,27.4
					c1,18.4-3.2,36.7-9.1,54c-5.7,16.9-12.8,33.8-25,47.1c-1.3,1.4,0.8,3.5,2.1,2.1c10.6-11.5,17.3-25.6,22.8-40.1
					c5.8-15.5,10.5-31.6,11.9-48.1c0.7-8,0.6-16.1-0.6-24.1c-1-6.9-2.5-15.7-6.8-21.5c-8.9-11.8-19.2,9.7-22.9,15.7
					c-10,16.2-18.1,33.4-22.6,51.9c0.9-0.1,1.8-0.2,2.7-0.4c-2.5-3.3-5.6,0-6.7,2.8c-3.1,7.5-3.7,16.2-3,24.1
					c0.9-0.4,1.7-0.7,2.6-1.1c-1.9-1.7-5-3.9-7.7-2.6c-2.8,1.4-2.4,5.2-2.4,7.8c-0.3,11.7,1.6,23.2,5.4,34.3
					C150,850,152.9,849.2,152.3,847.4L152.3,847.4z"/>
			</g>
		</g>
		<g>
			<g>
				<path class="st0" d="M198.5,715.3c-3.4,23.6-9.1,46.8-17.2,69.2c-7.5,21-20.1,41.3-22.9,63.7c-0.2,1.9,2.8,1.9,3,0
					c1.5-11.9,6.1-22.9,10.9-33.7c4.5-10.2,8.8-20.5,12.5-31c7.7-21.9,13.2-44.5,16.5-67.5C201.6,714.2,198.7,713.4,198.5,715.3
					L198.5,715.3z"/>
			</g>
		</g>
		<g>
			<g>
				<path class="st0" d="M170.9,751c1.1,15.9,2.7,31.7,4.8,47.5c0.3,1.9,3.1,1.1,2.9-0.8c-2.1-15.5-3.7-31.1-4.7-46.7
					C173.8,749.1,170.8,749,170.9,751L170.9,751z"/>
			</g>
		</g>
		<g>
			<g>
				<path class="st0" d="M189.6,768.9c8-7.9,14.9-16.8,20.7-26.4c1-1.7-1.6-3.2-2.6-1.5c-5.7,9.4-12.4,18-20.2,25.8
					C186.1,768.1,188.2,770.2,189.6,768.9L189.6,768.9z"/>
			</g>
		</g>
		<g>
			<g>
				<path class="st0" d="M141.2,845.9c-6.9-9.9-12.7-20.5-17.1-31.8c-2-5.1-3.7-10.4-5.1-15.7c-0.7-2.8-1.4-5.6-2-8.5
					c-0.4-1.7-3-12.8,0.6-12.1c1.2,0.2,2.1-0.7,1.8-1.8c-2.5-13.8-4.1-27.7-4.6-41.7c-0.2-6.4-0.3-13,1.1-19.2c0.7-3,1.7-6.5,3.7-9
					c4.6-5.6,9.4-1,12.4,3.2c14.4,20.2,23.6,44.5,28,68.8c0.3,1.9,3.2,1.1,2.9-0.8c-2.8-15.1-7.4-29.7-13.7-43.6
					c-3.3-7.2-7-14.1-11.2-20.7c-2.8-4.4-6.4-11.3-12.1-12.5c-12.5-2.6-14.1,19.2-14.2,26.9c-0.2,16.6,1.8,33.3,4.8,49.6
					c0.6-0.6,1.2-1.2,1.8-1.8c-12-2.1-2.1,25.4-0.6,30.1c4.7,15.1,11.8,29.4,20.8,42.4C139.7,849,142.3,847.5,141.2,845.9
					L141.2,845.9z"/>
			</g>
		</g>
		<g>
			<g>
				<path class="st0" d="M121.5,703.6c11.2,34.7,20.7,70,28.5,105.6c0.4,1.9,3.3,1.1,2.9-0.8c-7.8-35.6-17.3-70.9-28.5-105.6
					C123.8,701,120.9,701.8,121.5,703.6L121.5,703.6z"/>
			</g>
		</g>
		<g>
			<g>
				<path class="st0" d="M114.2,750c11.9,5.1,21.6,13.8,27.8,25.1c0.9,1.7,3.5,0.2,2.6-1.5c-6.5-11.8-16.5-20.9-28.9-26.2
					C113.9,746.7,112.4,749.3,114.2,750L114.2,750z"/>
			</g>
		</g>
		<g>
			<g>
				<path class="st0" d="M142.1,724.5c-2.6,9.9-4.2,19.9-4.8,30.1c-0.1,1.9,2.9,1.9,3,0c0.5-9.9,2.1-19.7,4.7-29.3
					C145.5,723.4,142.6,722.6,142.1,724.5L142.1,724.5z"/>
			</g>
		</g>
		<g>
			<g>
				<path class="st0" d="M1352.3,849.5c-7.9-19.2-10.2-40.1-6.2-60.5c-0.5,0.4-1,0.7-1.4,1.1c2.3-0.4,4,0.6,5.2,3.1
					c0.5,1.4,3.1,1.4,2.9-0.4c-0.9-8.8-0.9-17.7,0.2-26.5c0.6-4.4,1.4-8.7,2.5-13c0.5-2,1.1-4,1.7-6c0.4-1.1,0.7-2.3,1.1-3.4
					c0.7-1.6,1.1-3.3,1.1-5.1c0.8,0.5,1.7,1,2.5,1.5c3.4-18.3,12.3-34.8,25.5-47.8c-0.7,0-1.4,0-2.1,0c4.6,4.9,4.8,11.9,5.5,18.2
					c0.7,6.6,1.2,13.2,1.5,19.8c0.7,12.9,0.7,25.9,0,38.8c-1.3,26.7-5.4,53.1-12.2,78.9c-0.5,1.9,2.4,2.7,2.9,0.8
					c7.1-27.3,11.3-55.3,12.4-83.5c0.6-14.2,0.3-28.4-0.7-42.5c-0.7-10.1,0.1-24.6-7.4-32.6c-0.6-0.6-1.6-0.6-2.1,0
					c-13.6,13.3-22.8,30.4-26.3,49.1c-0.3,1.4,1.4,2.6,2.5,1.5c0.2-0.2,0.3-0.3,0.5-0.5c0.4-0.4,0.6-0.9,0.4-1.5
					c-0.8-2.3-2.9-3-4.7-1.1c-1.3,1.3-1.8,3.6-2.4,5.3c-1.2,3.4-2.2,6.8-3.1,10.3c-3.2,12.9-4,26.2-2.6,39.4c1-0.1,2-0.3,2.9-0.4
					c-1.4-3.5-4.2-5.6-8.1-5.3c-0.6,0-1.3,0.4-1.4,1.1c-4,20.9-1.9,42.4,6.2,62.1C1350.2,852,1353.1,851.3,1352.3,849.5
					L1352.3,849.5z"/>
			</g>
		</g>
		<g>
			<g>
				<path class="st0" d="M1396.9,768.8c2.6-17.8,9.7-34.8,20.9-49c2.7-3.4,5.5-6.5,8.6-9.5c2-1.9,6.5-7.3,9.6-2.8
					c1.2,1.7,1.1,4.5,1.1,6.5c-0.1,9.7-1.4,19.6-2.9,29.3c-5.7,37.5-19.1,73.6-39.2,105.8c-1,1.6,1.6,3.2,2.6,1.5
					c18.3-29.5,31.1-62.1,37.7-96.2c1.6-8.2,2.8-16.4,3.6-24.7c0.7-6.7,2.8-15.8,0.3-22.3c-5.3-14-21,7-24.8,11.9
					c-10.9,14.2-17.9,31-20.4,48.7C1393.8,769.9,1396.7,770.7,1396.9,768.8L1396.9,768.8z"/>
			</g>
		</g>
		<g>
			<g>
				<path class="st0" d="M1395.2,761.3c-1.2,16.9-3.5,33.6-6.9,50.2c-0.4,1.9,2.5,2.7,2.9,0.8c3.5-16.8,5.8-33.8,7-51
					C1398.3,759.4,1395.3,759.4,1395.2,761.3L1395.2,761.3z"/>
			</g>
		</g>
		<g>
			<g>
				<path class="st0" d="M1433.8,704.9c-17,47.7-33.4,95.5-49.3,143.6c-0.6,1.8,2.3,2.6,2.9,0.8c15.8-48.1,32.2-95.9,49.3-143.6
					C1437.3,703.9,1434.4,703.1,1433.8,704.9L1433.8,704.9z"/>
			</g>
		</g>
		<g>
			<g>
				<path class="st0" d="M1384.8,693.7c-7.8,52-15.7,103.9-23.5,155.9c-0.3,1.9,2.6,2.7,2.9,0.8c7.8-52,15.7-103.9,23.5-155.9
					C1388,692.6,1385.1,691.7,1384.8,693.7L1384.8,693.7z"/>
			</g>
		</g>
		<g>
			<g>
				<path class="st0" d="M1358.6,738.2c3.3,20.2,6.6,40.3,9.9,60.5c0.3,1.9,3.2,1.1,2.9-0.8c-3.3-20.2-6.6-40.3-9.9-60.5
					C1361.2,735.5,1358.3,736.3,1358.6,738.2L1358.6,738.2z"/>
			</g>
		</g>
		<g>
			<g>
				<path class="st0" d="M1392.3,722.8c-6.7,11.4-12.4,23.3-17.1,35.7c-0.7,1.8,2.2,2.6,2.9,0.8c4.6-12.1,10.2-23.8,16.8-34.9
					C1395.9,722.6,1393.3,721.1,1392.3,722.8L1392.3,722.8z"/>
			</g>
		</g>
		<g>
			<g>
				<path class="st0" d="M1404.9,734.6c0,17.2,0,34.5,0,51.7c0,1.9,3,1.9,3,0c0-17.2,0-34.5,0-51.7
					C1407.9,732.7,1404.9,732.7,1404.9,734.6L1404.9,734.6z"/>
			</g>
		</g>
		<g>
			<g>
				<path class="st0" d="M468.5,889.4c6.6-4.2,14.5-5.5,22-3.2c6.5,2,11.9,4.7,18.9,4.4c6.5-0.3,12.8-2,19.3-2.4
					c3.5-0.2,7-0.1,10.4,1.1c3.4,1.2,5.8,3,9.4,3.2c1.9,0.1,1.9-2.9,0-3c-4.1-0.2-7.6-3.1-11.6-3.9c-3.2-0.6-6.5-0.6-9.8-0.3
					c-7,0.7-13.9,2.7-20.9,2.3c-7.3-0.4-13.5-4.8-20.7-5.5c-6.6-0.6-13,1.2-18.5,4.7C465.4,887.8,466.9,890.4,468.5,889.4
					L468.5,889.4z"/>
			</g>
		</g>
		<g>
			<g>
				<path class="st0" d="M722.7,880.9c10-0.3,20-0.7,29.9-1c4.9-0.2,10-0.7,14.9-0.3c4.1,0.3,7.2,2.6,11,3.5
					c3.1,0.7,6.1,0.2,9.2-0.5c5.3-1.2,10.5-2.3,16-2.5c9.5-0.5,19,0.6,28.4,1.7c1.9,0.2,1.9-2.8,0-3c-9.4-1.1-18.9-2.2-28.4-1.7
					c-4.5,0.2-9,0.8-13.4,1.8c-5.3,1.2-9.4,2.1-14.5-0.2c-7.4-3.2-15.2-2.1-23-1.8c-10,0.3-20,0.7-29.9,1
					C720.8,878,720.8,881,722.7,880.9L722.7,880.9z"/>
			</g>
		</g>
		<g>
			<g>
				<path class="st0" d="M1082.1,981.6c10.1,1.5,20-0.4,29.9-2.3c6.1-1.2,12.2-2.4,18.5-2.6c6.2-0.2,12,1.2,18,2.6
					c5.2,1.2,10.2,1.7,15.5,1.1c5.3-0.7,10.4-2.1,15.7-2.7c11.5-1.4,22.3,4.2,33.8,3.5c1.9-0.1,1.9-3.1,0-3
					c-10.7,0.6-20.7-4.4-31.4-3.8c-5.1,0.3-10,1.6-15.1,2.5c-6.8,1.2-12.8,0.7-19.5-0.9c-10-2.5-19.3-2.7-29.5-0.9
					c-11.7,2-23.3,5.3-35.2,3.6C1081,978.4,1080.2,981.3,1082.1,981.6L1082.1,981.6z"/>
			</g>
		</g>
		<g>
			<g>
				<path class="st0" d="M1359.3,884.5c20-6.7,41.7-0.4,62.3-3.2c5.8-0.8,11.7-1.8,17.6-1.3c4.9,0.4,9.5,2.3,14.3,2.8
					c5,0.4,9.9-1,14.8-1.5c6.1-0.6,12.1-0.2,18.1,0.9c1.9,0.4,2.7-2.5,0.8-2.9c-5-0.9-10.1-1.4-15.2-1.3c-5.4,0.2-10.6,1.7-16,1.8
					c-5.1,0.1-9.9-2.1-15-2.7c-5.5-0.7-11,0-16.5,0.7c-11.7,1.6-22.9,1.5-34.6,0.9c-10.7-0.5-21.3-0.6-31.5,2.9
					C1356.7,882.2,1357.4,885.1,1359.3,884.5L1359.3,884.5z"/>
			</g>
		</g>
		<g>
			<g>
				<path class="st0" d="M532.2,961.8c82.5,0,165.1,0,247.6,0c1.9,0,1.9-3,0-3c-82.5,0-165.1,0-247.6,0
					C530.3,958.8,530.3,961.8,532.2,961.8L532.2,961.8z"/>
			</g>
		</g>
		<g>
			<g>
				<path class="st0" d="M762.5,978.1c42.4,0,84.7,0,127.1,0c1.9,0,1.9-3,0-3c-42.4,0-84.7,0-127.1,0
					C760.5,975.1,760.5,978.1,762.5,978.1L762.5,978.1z"/>
			</g>
		</g>
		<g>
			<g>
				<path class="st0" d="M1085,930.3c44.5,0,89.1,0,133.6,0c1.9,0,1.9-3,0-3c-44.5,0-89.1,0-133.6,0
					C1083.1,927.3,1083.1,930.3,1085,930.3L1085,930.3z"/>
			</g>
		</g>
		<g>
			<g>
				<path class="st0" d="M1269.6,934.7c26.4,0,52.9,0,79.3,0c1.9,0,1.9-3,0-3c-26.4,0-52.9,0-79.3,0
					C1267.7,931.7,1267.7,934.7,1269.6,934.7L1269.6,934.7z"/>
			</g>
		</g>
		<g>
			<g>
				<path class="st0" d="M182.5,904.3c47.1,0,94.1,0,141.2,0c1.9,0,1.9-3,0-3c-47.1,0-94.1,0-141.2,0
					C180.6,901.3,180.6,904.3,182.5,904.3L182.5,904.3z"/>
			</g>
		</g>
		<g>
			<g>
				<path class="st0" d="M317.2,893.4c26.1,0,52.1,0,78.2,0c1.9,0,1.9-3,0-3c-26.1,0-52.1,0-78.2,0
					C315.3,890.4,315.3,893.4,317.2,893.4L317.2,893.4z"/>
			</g>
		</g>
		<g>
			<g>
				<path class="st0" d="M765.9,917.8c34.2,0,68.3,0,102.5,0c1.9,0,1.9-3,0-3c-34.2,0-68.3,0-102.5,0
					C763.9,914.8,763.9,917.8,765.9,917.8L765.9,917.8z"/>
			</g>
		</g>
	</g>
	<g>
		<g>
			<path class="st1" d="M1206.7,399.5c0.4-7.7,15,0,19.1-0.7c5.4-0.9,6.6-6.9,12.8-5.6c3.8,0.8,7.4,2.6,11.4,2.2
				c2.6-0.3,4.5-1.8,7-2.5c3.9-1.1,7.8,0.1,10.7,2.9c1.4,1.3,3.5-0.8,2.1-2.1c-4.4-4.2-9.9-5.1-15.5-3c-4.7,1.8-7.5,1.6-12.2,0.2
				c-2.3-0.7-4.7-1.4-7.1-1.1c-2.8,0.4-3.9,1.8-5.8,3.5c-5.7,4.9-9.8,0.4-15.8-0.5c-4.6-0.7-9.3,1.6-9.6,6.7
				C1203.6,401.5,1206.6,401.5,1206.7,399.5L1206.7,399.5z"/>
		</g>
	</g>
	<g>
		<g>
			<path class="st1" d="M1223.8,384.3c0.8-6.6,12.4-1,15.8-0.7c4.6,0.4,5.7-2.2,9-4.6c6.1-4.5,10.5,1.2,16.6,0.9
				c1.7-0.1,2.6-1.1,4-1.9c3.9-2.2,7.7-2.7,11.2,0.6c1.4,1.3,3.5-0.8,2.1-2.1c-4.1-3.8-9-4.1-13.9-1.9c-2.2,1-0.9,2.1-4.7,2.1
				c-1.9,0-4.3-1.5-6.2-2c-2.7-0.7-5.5-1.1-8.2,0c-4.4,1.8-4.6,6.2-10.8,5.7c-3.1-0.2-5.8-2.1-9-2.3c-4.3-0.3-8.5,1.5-9.1,6.1
				C1220.5,386.2,1223.5,386.2,1223.8,384.3L1223.8,384.3z"/>
		</g>
	</g>
	<g>
		<g>
			<path class="st1" d="M275,746c4.1-3,7.6-4.4,12.4-2.1c1.9,0.9,3.7,1.9,5.8,2.3c4.4,0.7,8.4-1.5,12.3-3.2
				c3.6-1.6,6.6-2.5,10.4-0.5c2.1,1.1,3.8,2.6,6.2,3c4.8,0.9,11.9-3.7,15.7,0c1.4,1.3,3.5-0.8,2.1-2.1c-3.7-3.6-8.2-1.9-12.8-1.1
				c-3.1,0.5-5.1,0.4-7.9-1.2c-1.3-0.8-2.5-1.8-4-2.3c-2-0.7-4-0.8-6.1-0.4c-2.7,0.6-5.2,2-7.8,3.1c-4.7,2-7.8,1.9-12.6-0.2
				c-6.1-2.8-10-1.9-15.5,2.1C272,744.5,273.5,747.1,275,746L275,746z"/>
		</g>
	</g>
	<g>
		<g>
			<path class="st1" d="M303.9,730.5c6.8-7.6,18.4,1.2,26.8-0.6c3.1-0.7,5.1-1.7,8.3-0.6c1.9,0.7,3.5,2,5.4,2.7
				c3.7,1.3,7.2,0.7,10.6-0.9c1.7-0.8,0.2-3.4-1.5-2.6c-7,3.4-10.1-1.9-16.2-2.9c-1.9-0.3-3.4,0.2-5.2,0.8c-3.4,1-6,1.1-9.6,0.3
				c-7-1.5-15.2-4.5-20.9,1.8C300.5,729.8,302.6,731.9,303.9,730.5L303.9,730.5z"/>
		</g>
	</g>
	<g>
		<g>
			<path class="st1" d="M519.3,319.9c-7.8-5.9-2.6-19.1,7.4-16.9c4.1,0.9,7.6,4.2,7.6,8.6c0,5.2-4.4,9.8-9.5,10.1
				c-1.9,0.1-1.9,3.1,0,3c6.4-0.3,11.8-5.4,12.5-11.8c0.6-6.2-3.9-11.4-9.8-12.7c-13.5-3.1-20,14.6-9.7,22.4
				C519.3,323.7,520.8,321.1,519.3,319.9L519.3,319.9z"/>
		</g>
	</g>
	<g>
		<g>
			<path class="st0" d="M216.5,640.2c-5-5.5-0.3-15.3,7.4-13.2c9.3,2.5,6.9,15.6-2.4,15.5c-1.9,0-1.9,3,0,3c5.6,0,10.7-4.2,11.5-9.8
				c0.8-5.2-2.7-9.7-7.5-11.4c-10.9-3.8-18.5,9.9-11.1,18C215.7,643.7,217.8,641.6,216.5,640.2L216.5,640.2z"/>
		</g>
	</g>
	<g>
		<g>
			<path class="st0" d="M732.2,608.9c-3.7,2.7-6.5,6.3-7.7,10.7c-1.4,5.2,2.2,12.5-1.3,16.4c-2.2,2.5-6,4.2-7,7.6
				c-0.4,1.2-0.3,2.3,0.1,3.5c0.5,1.7,1.2,2,1.2,3.8c0,3-2.6,4.3-5.1,5.6c-1.7,0.9-0.2,3.5,1.5,2.6c3.2-1.7,7.3-4.5,7-8.6
				c-0.2-2.6-2.7-4.2-1.3-7c0.9-1.7,3.2-3,4.5-4.3c2.5-2.3,4.2-4.7,3.8-8.2c-0.5-3.8-1.6-6.7-0.6-10.6c1-3.7,3.2-6.7,6.3-8.9
				C735.2,610.4,733.7,607.8,732.2,608.9L732.2,608.9z"/>
		</g>
	</g>
	<g>
		<g>
			<path class="st0" d="M746.9,618.9c-8.5-0.8-9.5,9.7-9.1,15.8c0.2,3.4,0.4,6.8-1.7,9.6c-1.1,1.4-2.7,2.5-3.4,4.2
				c-0.6,1.5-0.2,2.7,0.1,4.3c0.9,4.9-1.8,8.1-5.1,11.3c-1.4,1.4,0.7,3.5,2.1,2.1c2.6-2.6,5.6-5.6,6.3-9.4c0.3-1.8-0.4-3.2-0.4-4.9
				c0-3.1,1.9-4.2,3.3-6.4c2.2-3.2,2.1-7.1,1.8-10.8c-0.3-4.3-0.6-13.4,6.1-12.8C748.9,622.1,748.8,619.1,746.9,618.9L746.9,618.9z"
				/>
		</g>
	</g>
	<g>
		<g>
			<path class="st0" d="M756,249.1c0.4-6.9,12-4.3,16.3-6.6c3.1-1.7,4.9-4.8,6.6-7.7c1-1.7,1.9-3.6,3.2-5.1c2.6-3,5.6-2.6,9.2-2.9
				c4.7-0.4,8.5-2.7,11.4-6.4c1.2-1.5-0.9-3.6-2.1-2.1c-2.8,3.6-6.3,5.3-10.8,5.6c-2.2,0.1-4.3,0-6.4,1c-3.8,1.9-5.6,6-7.6,9.5
				c-1.6,2.7-3.1,4.9-6.1,6c-2.9,1.1-6.2,0.5-9.2,1.2c-4,0.9-7.1,3.4-7.4,7.6C752.9,251,755.9,251,756,249.1L756,249.1z"/>
		</g>
	</g>
	<g>
		<g>
			<path class="st0" d="M764.8,261.6c3-4.9,9.1-6.1,13.9-8.5c4.3-2.1,6.5-4.8,7.8-9.4c1.9-7.1,7.4-6.2,13.5-7.1
				c3.7-0.6,6.7-1.8,8.2-5.5c0.7-1.8-2.2-2.6-2.9-0.8c-1.9,4.5-9.4,3.4-13.4,4.3c-4.1,0.8-6.9,2.7-8.1,6.8c-1.1,3.7-1.5,6-4.9,8.1
				c-2.1,1.3-4.5,2.2-6.8,3.2c-4,1.7-7.7,3.6-10,7.4C761.2,261.7,763.8,263.2,764.8,261.6L764.8,261.6z"/>
		</g>
	</g>
	<g>
		<g>
			<path class="st0" d="M1215.5,720.4c-2.4-7.4,5.2-15,12.4-10.5c7.9,4.9,3.5,16.1-5.3,15.9c-1.9-0.1-1.9,2.9,0,3
				c11.2,0.4,17.1-13.9,7.7-20.8c-9.2-6.8-21,2.8-17.7,13.3C1213.2,723.1,1216.1,722.3,1215.5,720.4L1215.5,720.4z"/>
		</g>
	</g>
	<g>
		<g>
			<path class="st0" d="M744.4,819.1c-2.8-5.2,0.2-12.8,6.9-11.8c2.7,0.4,5.3,2.4,5.3,5.4c0,2.9-2.3,5.8-5.3,5.9
				c-1.9,0.1-1.9,3.1,0,3c9.4-0.4,11.1-13.7,2.3-16.8c-9.7-3.3-16.1,7.7-11.8,15.8C742.8,822.3,745.4,820.8,744.4,819.1L744.4,819.1
				z"/>
		</g>
	</g>
	<g>
		<g>
			<path class="st0" d="M1169.4,232c-2.9-3.2,1.3-7.7,4.9-5.6c4.5,2.7,1.8,8.2-2.4,9.3c-1.9,0.5-1.1,3.4,0.8,2.9
				c7.3-1.8,9.8-12.1,2-15.3c-6.6-2.7-12.2,5.6-7.5,10.8C1168.6,235.6,1170.7,233.5,1169.4,232L1169.4,232z"/>
		</g>
	</g>
	<g>
		<g>
			<path class="st1" d="M141.1,334.1c-5.8-3-2.3-12.2,4.2-10.3c7.6,2.2,5,12-1.7,13.4c-1.9,0.4-1.1,3.3,0.8,2.9
				c10-2.2,11.9-17,0.9-19.4c-9.5-2.1-14.3,11.5-5.8,15.9C141.3,337.6,142.8,335,141.1,334.1L141.1,334.1z"/>
		</g>
	</g>
	<g id="number_board">
		<path class="st1" d="M118.9,403.2c-0.2,40.4-0.3,80.9-0.5,121.3c183.6-0.7,367.2-1.4,550.8-2c-0.5-39.8-1.1-79.6-1.6-119.4
			C484.7,403.1,301.8,403.2,118.9,403.2z"/>
		<g>
			<g>
				<path class="st2" d="M114.8,402.9c0,39.2,0,78.3,0,117.5c0,3.9,6,3.9,6,0c0-39.2,0-78.3,0-117.5
					C120.8,399,114.8,399,114.8,402.9L114.8,402.9z"/>
			</g>
		</g>
		<g>
			<g>
				<path class="st2" d="M120.6,404.5c71.3,0,142.6,0,213.9,0c71.6,0,143.3,0,214.9,0c40.3,0,80.6,0,121,0c3.9,0,3.9-6,0-6
					c-71.3,0-142.6,0-213.9,0c-71.6,0-143.3,0-214.9,0c-40.3,0-80.6,0-121,0C116.7,398.5,116.7,404.5,120.6,404.5L120.6,404.5z"/>
			</g>
		</g>
		<g>
			<g>
				<path class="st2" d="M667.1,401.4c0.5,40.8,1,81.7,1.5,122.5c0,3.9,6,3.9,6,0c-0.5-40.8-1-81.7-1.5-122.5
					C673.1,397.6,667.1,397.6,667.1,401.4L667.1,401.4z"/>
			</g>
		</g>
		<g>
			<g>
				<path class="st2" d="M117.8,526.2c72.1,0,144.1,0,216.2,0s144.1,0,216.2,0c40.5,0,81,0,121.6,0c3.9,0,3.9-6,0-6
					c-72.1,0-144.1,0-216.2,0s-144.1,0-216.2,0c-40.5,0-81,0-121.6,0C113.9,520.2,113.9,526.2,117.8,526.2L117.8,526.2z"/>
			</g>
		</g>
		<g>
			<g>
				<path class="st3" d="M164.5,453.8c4.1-10,6.3-20.5,6.9-31.3c-1,0-2,0-3,0c-0.4,28.6-0.8,57.2-1.1,85.7c0,1.9,3,1.9,3,0
					c0.4-28.6,0.8-57.2,1.1-85.7c0-1.9-2.9-1.9-3,0c-0.5,10.5-2.8,20.7-6.8,30.5C160.9,454.8,163.8,455.5,164.5,453.8L164.5,453.8z"
					/>
			</g>
		</g>
		<g>
			<g>
				<path class="st3" d="M209.2,452.1c-2.6-4.1-3.6-8.9-2.3-13.7c1.5-5.5,8.6-12.4,13.3-5c4,6.4,0.1,17.6-1.9,24.2
					c-4.5,15.2-12.8,29-24,40.3c-0.8,0.9-0.4,2.1,0.7,2.5c12.8,4.8,27.7,9.5,39.9,0.7c1.6-1.1,0.1-3.7-1.5-2.6
					c-11.6,8.3-25.6,3.5-37.6-1c0.2,0.8,0.4,1.7,0.7,2.5c8.1-8.3,14.9-17.8,19.7-28.3c4.5-9.8,8.9-21.8,8.5-32.8
					c-0.3-7.7-7.1-15.3-14.9-10c-7.9,5.4-7.8,17.1-3.2,24.6C207.6,455.2,210.2,453.7,209.2,452.1L209.2,452.1z"/>
			</g>
		</g>
		<g>
			<g>
				<path class="st3" d="M256.3,431.9c10.3-0.5,20.4,0,30.6,1.6c-0.3-0.7-0.6-1.5-0.9-2.2c-5.7,7.4-12.4,13.6-20.2,18.7
					c-1.6,1.1-0.2,3.4,1.5,2.6c7.5-3.7,15.6,1.1,19.1,8.1c3,6.1,3.2,13.5,1.9,20c-1.3,6.4-4.6,12.7-10.4,16.2
					c-6.2,3.7-14.4,3.7-19.9-1.2c-1.4-1.3-3.6,0.8-2.1,2.1c5.8,5.2,14,6,21,2.9c8.3-3.6,13-12.1,14.5-20.7c1.4-8.3,0.5-18-4.9-24.8
					c-5-6.2-13.4-8.7-20.7-5.2c0.5,0.9,1,1.7,1.5,2.6c8.2-5.3,15.3-11.9,21.3-19.7c0.6-0.7,0-2.1-0.9-2.2
					c-10.4-1.6-20.9-2.2-31.4-1.7C254.3,429,254.3,432,256.3,431.9L256.3,431.9z"/>
			</g>
		</g>
		<g>
			<g>
				<path class="st3" d="M337.4,427.5c-1,8.1-2.9,15.6-5.2,23.4c-1.2,4.2-0.6,5.7,3.9,6.1c7.9,0.7,15.9,0.9,23.9,1.4
					c2.4,0.1,11.3,2.5,11.9-1.6c0.3-1.9-2.6-2.7-2.9-0.8c0,0.2-28.3-1.6-30.9-1.9c-0.8,0-1.6-0.1-2.3-0.4c-1.3,0.2-1.7-0.2-1-1.2
					c-0.1-0.9,0.9-2.7,1.2-3.6c0.7-2.4,1.4-4.8,2-7.3c1.1-4.7,1.9-9.5,2.5-14.3C340.6,425.6,337.6,425.6,337.4,427.5L337.4,427.5z"
					/>
			</g>
		</g>
		<g>
			<g>
				<path class="st3" d="M356,433c0.7,21.2,1.7,42.5,2.9,63.7c0.1,1.9,3.1,1.9,3,0c-1.2-21.2-2.1-42.4-2.9-63.7
					C358.9,431.1,355.9,431.1,356,433L356,433z"/>
			</g>
		</g>
		<g>
			<g>
				<path class="st3" d="M382.8,428.2c5.5-0.8,10.8,0,16.3,0.5c2.3,0.2,4.7,0.4,7.1,0.3c0.8,0,5.4-1,6-0.7c-0.2-0.7-0.4-1.4-0.5-2.1
					c-0.1,0.1-0.1,0.2-0.2,0.3c0.7-0.2,1.4-0.4,2.1-0.5c-0.1,0-0.2-0.1-0.2-0.1c-1.7-0.8-3.3,1.7-1.5,2.6c0.1,0,0.2,0.1,0.2,0.1
					c0.7,0.3,1.6,0.2,2.1-0.5c0.1-0.1,0.1-0.2,0.2-0.3c0.4-0.7,0.2-1.6-0.5-2.1c-1-0.6-1.7-0.3-2.8-0.2c-3.7,0.3-7.1,0.6-10.9,0.3
					c-6.1-0.5-11.9-1.4-18-0.5C380.1,425.6,380.9,428.5,382.8,428.2L382.8,428.2z"/>
			</g>
		</g>
		<g>
			<g>
				<path class="st3" d="M380.5,426.9c3.1,7.5,5.1,15.2,6.1,23.2c0.1,0.9,0.9,1.8,1.9,1.4c6.2-2.1,12.3-2,17.2,2.8
					c4.6,4.6,5.9,11.2,4.9,17.5c-0.8,5.6-3.1,12.9-8.8,15.2c-6.6,2.7-13.5-0.9-19.3-4c-1.7-0.9-3.2,1.7-1.5,2.6
					c6.6,3.5,14.5,7.4,22,4.2c6.7-2.8,9.6-11,10.6-17.6c1.1-7.2-0.6-14.7-5.8-20c-5.6-5.6-12.8-6.1-20.1-3.6c0.6,0.5,1.3,1,1.9,1.4
					c-1-8.3-3.1-16.3-6.2-24C382.6,424.3,379.7,425.1,380.5,426.9L380.5,426.9z"/>
			</g>
		</g>
		<g>
			<g>
				<path class="st3" d="M445.2,425.2c-10.7,7.3-18.1,18.7-20.4,31.4c-1.7,9.4-1.8,26.4,8.8,30.9c10.6,4.5,19-9.9,15.1-18.9
					c-3.7-8.5-21.1-9.6-23.8,0.3c-0.5,1.9,2.4,2.7,2.9,0.8c1.4-5,8.9-5.4,13-4.2c6.2,1.8,7.1,9.1,4.4,14.2
					c-3.3,6.2-10.5,7.4-14.6,1.3c-2.4-3.5-3.2-7.8-3.6-11.9c-1.4-16.1,6.3-32.2,19.6-41.4C448.3,426.7,446.8,424.1,445.2,425.2
					L445.2,425.2z"/>
			</g>
		</g>
		<g>
			<g>
				<path class="st3" d="M504,436.7c-0.3-0.7-2.1-4.2-1.7-5.5c-0.4-1.3,0.3-1.6,1.9-1c0.7,0,1.3,0,2,0c3.3-0.1,6.5-0.1,9.8-0.2
					c6.5-0.1,13-0.3,19.6-0.4c-0.4-0.8-0.9-1.5-1.3-2.3c-11,22.3-18.2,46.2-21.2,71c1-0.1,2-0.3,2.9-0.4c-0.1-0.7-0.2-1.4-0.3-2.1
					c-0.3-1.9-3.2-1.1-2.9,0.8c0.1,0.7,0.2,1.4,0.3,2.1c0.3,1.8,2.8,1.1,2.9-0.4c3-24.2,10-47.6,20.8-69.5c0.5-1-0.1-2.3-1.3-2.3
					c-10.7,0.2-21.5,0.2-32.3,0.7c-6.7,0.3-3.8,6.6-1.9,11C502.1,440,504.7,438.4,504,436.7L504,436.7z"/>
			</g>
		</g>
		<g>
			<g>
				<path class="st3" d="M507.7,467.2c9,2.1,18,1.7,26.8-1.1c1.8-0.6,1-3.5-0.8-2.9c-8.3,2.7-16.7,3-25.2,1.1
					C506.6,463.8,505.8,466.7,507.7,467.2L507.7,467.2z"/>
			</g>
		</g>
		<g>
			<g>
				<path class="st3" d="M582.4,430.8c-4.9,10.9-9.7,21.8-14.6,32.7c-2.3,5.2-4.6,10.3-6.9,15.5c-2.2,4.9-3.9,11.2-7,15.6
					c-1.1,1.6,1.5,3.1,2.6,1.5c2.8-4.1,4.5-10.1,6.6-14.7c2.4-5.5,4.9-10.9,7.3-16.4c4.9-10.9,9.7-21.8,14.6-32.7
					C585.8,430.6,583.2,429.1,582.4,430.8L582.4,430.8z"/>
			</g>
		</g>
		<g>
			<g>
				<path class="st3" d="M583.5,430.2c-6.1-6.1-15.8-1.4-21.7,2.7c-7,4.8-12.4,13.3-9,22c3.8,9.9,14.8,12.6,21.9,19.3
					c5.7,5.3,8.3,13.8,1.2,19.2c-5.9,4.5-13.7,3.5-20.6,2.2c-1.9-0.4-2.7,2.5-0.8,2.9c8.5,1.6,18.2,2.5,24.9-4.2
					c5.8-5.8,4.7-14.1-0.3-20c-6.7-8.1-20.7-10.6-23.8-21.6c-2.1-7.3,3.1-13.9,8.8-17.7c4.5-3,12.7-7.5,17.5-2.8
					C582.7,433.7,584.8,431.6,583.5,430.2L583.5,430.2z"/>
			</g>
		</g>
		<g>
			<g>
				<path class="st3" d="M623.9,433.5c5.5-5.4-1.1-12-7.2-12c-7.4,0.1-18.3,5-20.2,12.8c-1.7,7.1,4.9,13.7,11.9,13.9
					c8.6,0.2,14.1-8,15-15.7c-1,0.1-2,0.3-2.9,0.4c2.6,13.4,3.3,27.2,1.8,40.8c-0.7,6-1.8,14.4-8.7,16.5c-8,2.4-14.5-4.6-18.3-10.6
					c-1-1.6-3.6-0.1-2.6,1.5c3.8,5.9,8.9,11.7,16.3,12.4c6.5,0.6,11.5-2.9,13.9-8.8c3-7.3,3-16.4,3-24.1c0.1-9.6-0.9-19.1-2.7-28.5
					c-0.3-1.8-2.8-1.1-2.9,0.4c-0.6,5.3-3.7,10.7-9.1,12.3c-5,1.5-11.1-1.8-11.9-7.2c-0.8-5.2,4-8.6,8.2-10.6
					c2.1-0.9,4.3-1.8,6.5-2.2c1.7-0.4,3.4-0.5,5.1-0.1c3.3,1.1,4.1,3.3,2.5,6.6C620.4,432.7,622.5,434.9,623.9,433.5L623.9,433.5z"
					/>
			</g>
		</g>
		<path class="st2" d="M810.2,416.2c-3.2,2.6-7.3,6.5-11.1,11.9c-3.3,4.7-5.4,9.2-6.7,12.7c3,1.4,9.4,4.9,10.7,11.1
			c1.5,6.8-4.1,13-11.5,21c-4.9,5.2-12.4,12.2-23.4,18.6c-1.9,0-5.7-0.2-9.9-2.4c-5-2.7-7.4-6.7-8.3-8.3c-4.2,1.2-9.6,3.2-15.5,6.7
			c-5.5,3.3-9.7,6.9-12.7,9.9c1.4,3.2,5.6,12,15.1,15.8c3.7,1.5,8.4,2.3,17.1,0.8c8.8-1.5,20.7-5.1,34.8-14.7
			c20.1-13.7,30.1-29.7,32.9-34.5c7-11.9,12-20.4,9.1-30.1C827.1,422.6,813.3,417.3,810.2,416.2z"/>
		<g>
			<g>
				<path class="st2" d="M750.2,459.6c5.4-7.6,12.8-13.3,21.4-16.7c1.8-0.7,1-3.6-0.8-2.9c-9.4,3.7-17.3,9.8-23.2,18.1
					C746.4,459.7,749,461.2,750.2,459.6L750.2,459.6z"/>
			</g>
		</g>
		<g>
			<g>
				<path class="st2" d="M733.7,461.4c8.1-17.7,23.8-30.7,42.8-35.4c1.9-0.5,1.1-3.4-0.8-2.9c-19.6,4.8-36.1,18.4-44.6,36.7
					C730.3,461.7,732.8,463.2,733.7,461.4L733.7,461.4z"/>
			</g>
		</g>
		<g>
			<g>
				<path class="st2" d="M719.8,464.6c2.3-13.8,9.8-25.9,20.5-35c10.2-8.7,25.9-18.1,39.8-16.3c1.9,0.2,1.9-2.8,0-3
					c-14.2-1.8-30,7.5-40.7,16.1c-11.6,9.4-20,22.5-22.5,37.3C716.6,465.7,719.5,466.5,719.8,464.6L719.8,464.6z"/>
			</g>
		</g>
	</g>
	<g id="leg_right">
		<path class="st4" d="M890.5,910.9c0.4,13,0.7,26,1.1,39c-41.3,12.2-61.6,20.2-60.9,24c0.9,4.8,34,3.2,99.3-4.8
			c-1.4-22.2-2.8-44.5-4.3-66.7C914,905.2,902.3,908,890.5,910.9z"/>
		<path class="st3" d="M1021.2,654.6c-6,1.8-4.7,2.5-37.1,27.4c-34.3,26.3-51.4,39.5-63.3,46.2c-6.9,3.9-12.5,6.7-19.4,13.1
			c-11.4,10.7-17.2,22.9-21.7,34.8c-14,37.1-16.1,72.6-16.5,88.4c-0.4,14.6-0.1,35.2,3.4,59.9c10.8,2.6,19.8,3.3,26.2,3.4
			c11.1,0.2,26.9,0.4,43.3-8c4.8-2.5,8.5-5.1,10.8-6.8c-2.9-17.1-5.1-38.6-4-63.3c0.9-19.9,3.6-37.4,6.8-51.9
			c5.3-4,13.4-9.7,23.9-15.4c12.1-6.5,24.2-11.3,57.6-21.1c40-11.7,41.4-10.4,47.3-15.4c15.3-12.8,26.3-38.6,17.7-61
			C1085,655.4,1045.6,647.5,1021.2,654.6z"/>
		<g>
			<g>
				<path class="st2" d="M1005.8,664.7c-18.5,12.9-36.9,25.9-55.4,38.8c-16.4,11.5-34,22.3-49,35.8c-14.4,12.9-22.4,29-27.6,47.4
					c-5.7,20.4-9.4,41.5-11.3,62.6c-2.2,24.3-1.7,48.7,1.1,72.9c0.2,1.9,3.2,1.9,3,0c-4.9-41.4-2.5-83.5,7.3-123.9
					c4.7-19.5,10.9-38.3,25.4-52.8c14-14,31.6-24.6,47.7-35.9c20.1-14.1,40.2-28.2,60.3-42.3
					C1008.9,666.2,1007.4,663.6,1005.8,664.7L1005.8,664.7z"/>
			</g>
		</g>
		<g>
			<g>
				<path class="st2" d="M1062.5,749.5c-22,6.3-43.7,13.3-65.1,21.3c-9.4,3.5-19,7-28.2,11.1c-7.6,3.4-14.7,7.7-19.1,15
					c-1,1.7,1.6,3.2,2.6,1.5c4.8-8.1,13.4-12.1,21.7-15.5c9.6-3.9,19.3-7.6,29.1-11.2c19.7-7.2,39.6-13.6,59.7-19.3
					C1065.1,751.9,1064.3,749,1062.5,749.5L1062.5,749.5z"/>
			</g>
		</g>
		<g>
			<g>
				<path class="st2" d="M951.4,781.9c-10.4,42.5-12.3,86.7-5.6,129.9c0.3,1.9,3.2,1.1,2.9-0.8c-6.6-42.7-4.7-86.4,5.6-128.3
					C954.7,780.8,951.8,780,951.4,781.9L951.4,781.9z"/>
			</g>
		</g>
		<g>
			<g>
				<path class="st2" d="M864.9,922.1c0.5,5.6,9.2,4.7,13,5.1c9.2,0.9,18.4,1.6,27.7,1.1c15-0.8,29.7-5,41.5-14.6
					c1.5-1.2-0.6-3.3-2.1-2.1c-10.1,8.2-22.6,12.2-35.4,13.4c-6.6,0.6-13.2,0.6-19.8,0.2c-2.4-0.1-21.7-0.6-21.9-3.1
					C867.7,920.2,864.7,920.2,864.9,922.1L864.9,922.1z"/>
			</g>
		</g>
		<path class="st5" d="M1061.6,715.8c-13.8-7-29.6,10.9-68.6,28.7c-31.9,14.6-39.8,11-52.3,18.6c-22,13.3-41.5,51.2-27.5,161.3
			c3.1,0,6.7-0.3,10.7-1.1c10.5-2.2,18-7.2,22.5-10.7c-3.5-21.9-5.6-49.5-2.2-81c1.4-13.3,3.6-25.5,6.2-36.5
			c9.5-5.5,24.3-13.4,43.3-20.8c46.1-18.1,74.7-17,79.3-33.2C1075.4,732,1069.8,719.9,1061.6,715.8z"/>
		<path class="st6" d="M1051.5,752.9c-0.5-2.7-32.9-1.3-66.9,10.1c-21.7,7.2-33.5,11.2-43.8,22.5c-16.4,17.8-17.3,40.7-18.6,72.5
			c-0.6,15.1-0.2,36.9,5.1,63c6.6-2.1,13.1-4.1,19.7-6.2c-2.5-18.6-4.1-41-2.8-66.3c1-18.9,3.3-35.8,6.2-50.6
			c2.9-3.1,7.3-7.5,13.5-11.8c13.5-9.5,25.4-11.9,39.4-15.7C1021.4,765.3,1052,755.5,1051.5,752.9z"/>
	</g>
	<g id="leg_left">
		<path class="st4" d="M1219.2,842.8c21.8-7.1,40.3-11.1,53.8-13.5c19.3-3.4,23.8-2.7,27.4,0c6.2,4.6,4.9,11.4,7.2,53.8
			c0.8,13.9,1.2,17.4-1.6,21.7c-9.5,15.1-41.1,14.4-43.5,7.8c-0.9-2.6,2.1-7.4,17.1-17.1c-0.5-9.5-1-19-1.6-28.5
			c-17.1,4.1-34.2,8.3-51.2,12.4C1224.4,867.3,1221.8,855.1,1219.2,842.8z"/>
		<path class="st3" d="M1044.5,670.6c-6.6,15.5-1.9,32.1,0.3,39.9c2.5,9,4.9,10.2,8.9,22.3c4.3,13,5.6,22.4,7.4,33.7
			c2.6,16.5,5.6,35.3,10.3,54.1c5.8,23.2,9,35.1,18.6,48c4.2,5.7,14.1,18.5,31.5,25.3c3.3,1.3,7.7,2.7,18.6,4.1
			c12,1.6,30.6,4,55.2,1c21-2.5,38.5-8.1,51.6-13.4c2.6-9.6,2.5-17.6,2.1-22.7c-0.6-6.4-1.6-18.3-10.3-28.4
			c-2.5-2.9-6.2-7.1-12.4-9.3c-6.8-2.3-12.9-0.8-23.7,2.1c-12.5,3.3-17.1,6.9-25.3,5.2c-3.5-0.7-6.1-2.1-7.7-3.1
			c-2.4-3.7-5.7-9.3-8.8-16.5c-8.1-18.8-8.7-33.9-9.8-50.5c-2.5-37.4-3.8-56.1-9.8-76.8c-6.3-21.7-8.1-32.6-17.5-39.2
			c-9.7-6.8-20.7-6.3-27.5-6C1079.5,641.1,1053.7,649.1,1044.5,670.6z"/>
		<g>
			<g>
				<path class="st2" d="M1128.5,653.3c16.4,34.4,17.7,73,21.3,110.2c2.6,26.9,4.9,63.8,32.2,78c1.7,0.9,3.2-1.7,1.5-2.6
					c-14-7.3-21-21.7-24.9-36.4c-4.2-16.1-5.3-33-6.7-49.6c-3-34.4-5.7-69.5-20.7-101.2C1130.3,650,1127.7,651.5,1128.5,653.3
					L1128.5,653.3z"/>
			</g>
		</g>
		<g>
			<g>
				<path class="st2" d="M1047.2,721.8c17.6,39.9,13.2,85.4,30.3,125.4c6.8,16,17,31,31.5,40.9c17.6,11.9,40.5,14.3,61.2,14
					c26.1-0.4,51.8-6.4,76-15.9c1.8-0.7,1-3.6-0.8-2.9c-21.1,8.3-43.3,14-66,15.4c-21.6,1.4-46.2,0.3-65.3-10.9
					c-33.5-19.7-42.4-62-47.8-97.3c-3.6-23.9-6.8-48-16.7-70.3C1049,718.6,1046.4,720.1,1047.2,721.8L1047.2,721.8z"/>
			</g>
		</g>
		<g>
			<g>
				<path class="st2" d="M1167.7,829.9c18.1,10.6,38.8-9.8,57.9-3.6c10.6,3.5,15.8,14.9,18.7,24.9c3.2,10.8,3.6,22.1,1.4,33.1
					c-0.4,1.9,2.5,2.7,2.9,0.8c2-10.4,1.9-21.1-0.5-31.4c-2.3-9.4-6.3-20.1-14.2-26.3c-7.3-5.8-17-5.9-25.8-4.2
					c-11.8,2.3-27.3,11-38.9,4.2C1167.5,826.4,1166,828.9,1167.7,829.9L1167.7,829.9z"/>
			</g>
		</g>
		<path class="st5" d="M1113.7,652c-16.8,16.5,17.1,52.8,17.7,113.8c0.5,47.7-10.8,67.5,4.4,83.5c21.8,22.9,71.1,9.7,76.5,8.2
			c8.6-2.4,27-5.9,28.5-15.2c0.9-6.1-5.5-13-12-16.4c-19.8-10.5-38.3,12.7-55.7,5.1c-13.1-5.8-16-25-21.5-60.7
			c-4.5-29.3-1.7-35.5-7-67.7c-3.9-23.7-8.9-53.3-20.9-55C1118.9,646.8,1114.5,651.1,1113.7,652z"/>
		<path class="st7" d="M1140.9,691.2c-1.6,0.1-1.7,19.3-1.9,43c-0.5,67.3,3.3,81.6,12,94.2c3.6,5.2,10.4,14.8,22.8,20.2
			c27.4,12.1,63.8-3.8,63.9-13.9c0-5.1-9.3-8.9-10.8-9.5c-9.5-3.8-16.8-0.1-36.1,3.2c-8,1.4-14.8,2.1-19.6,2.5
			c-3.6-4.5-8.6-11.5-12.6-20.9c-7.7-17.7-7.1-32.1-7.6-47.4C1149.9,724.8,1142.9,691.1,1140.9,691.2z"/>
	</g>
	<g id="hand_reight">
		<path class="st3" d="M769.3,524.5c0.2-2.3,5.5-3.5,8.7-4.2c13.1-2.9,24.4-0.7,27.4,0.5c5.6,2.2,11.2,4.4,16.9,6.6
			c0.3-1.7,1.2-5.3,4.1-8c5.2-4.7,12.6-2.9,14.6-2.3c2.6,0.7,6.7,2.3,13.7,9.9c7.2,7.8,8.2,11.8,12.3,16.9
			c9.5,11.8,23.8,14.9,31,16.4c6.3,1.4,19,4.1,33.3-1.9c12.6-5.3,19.7-14.6,22.8-18.8c3-4.1,4-6.5,10-20.2
			c12.2-27.9,16.1-36.5,24.6-45.1c4.6-4.7,10.2-10.2,16-8.9c7.1,1.6,10.1,12.7,11.4,17.4c1.4,5.2,3.2,15.1-0.9,32.4
			c-1.4,6-6.2,23.7-20.1,43.2c-5.8,8.2-13.9,19.3-28.3,28.7c-6.3,4.1-16.6,10.7-31.5,12.7c-13.2,1.8-23.3-0.9-31.9-3.3
			c-9.5-2.6-25.3-8.4-42-22.1c-10.7,0.5-18.9,1.2-24.6,1.9c-9.7,1.1-13.8,2-18.2-0.5c-1.5-0.9-3.7-2.5-6.8-2.3
			c-2.9,0.2-3.9,1.8-6.4,2.3c-2.8,0.6-7.4,0.1-10-3.3c-2.1-2.7-1.9-6.1-1.8-7.2c-1.7-1.5-4.4-4.3-5.7-8.5c-0.9-2.9-0.8-5.3-0.8-8
			c0.1-3.2,0.1-4.8,0.9-6.1c2.3-4,8.9-3.8,9.9-3.7c-3.2-2.4-6.1-3.7-7.9-4.4c-6.2-2.5-9.5-1.7-15.2-4.8
			C772.5,528.4,769.1,526.5,769.3,524.5z"/>
		<g>
			<g>
				<path class="st2" d="M1005.6,464.1c-8.7-3.3-15.2,4-19.8,10.5c-6.9,9.7-12.8,20.1-17.8,30.9c-9.4,20.6-15.8,44.6-35.1,58.4
					c-1.6,1.1-0.1,3.7,1.5,2.6c15.6-11.3,23.4-29,30.5-46.3c4.3-10.4,8.9-20.6,14.5-30.3c2.8-4.7,5.7-9.4,8.9-13.8
					c3.8-5.3,8.9-11.9,16.4-9.1C1006.6,467.7,1007.4,464.8,1005.6,464.1L1005.6,464.1z"/>
			</g>
		</g>
		<g>
			<g>
				<path class="st2" d="M830.7,529.2c-4.3,1.4-6-3.9-4.7-6.8c1-2.3,3.6-3.5,5.8-4.2c4.2-1.2,9-0.4,12.9,1.5
					c6.5,3.2,10.2,9.7,14.2,15.5c7,10.2,16.3,18.4,27.6,23.4c22.5,9.9,48.8,4.6,66.1-12.8c1.4-1.4-0.8-3.5-2.1-2.1
					c-11.8,12-28.5,18.4-45.3,16.8c-17.2-1.6-32.8-11.6-42.8-25.5c-7.4-10.5-16.7-24.6-32-19.5c-4.3,1.4-8.5,5.2-7.8,10.1
					c0.6,4.4,4.6,7.9,9,6.4C833.3,531.5,832.5,528.6,830.7,529.2L830.7,529.2z"/>
			</g>
		</g>
		<g>
			<g>
				<path class="st2" d="M820.3,525.1c-8-4-16.4-7.1-25.3-8c-7.8-0.8-18.7-0.5-25.1,4.8c-5.8,4.8,1.8,7.9,5.9,9.6
					c9.4,3.9,20,5.1,29.1,9.8c1.7,0.9,3.2-1.7,1.5-2.6c-5.6-2.9-11.6-4.3-17.6-6c-3.2-0.9-6.3-1.9-9.4-3.1c-1.7-0.6-5.1-1.3-6.4-2.7
					c-2.3-2.4,0.6-3.9,2.8-4.7c13.9-5.7,30.3-0.9,43.1,5.5C820.5,528.5,822,525.9,820.3,525.1L820.3,525.1z"/>
			</g>
		</g>
		<g>
			<g>
				<path class="st2" d="M804.2,539.4c-4.3-2.6-9.7-2.9-14-0.2c-3.5,2.1-6.4,6.7-4.8,10.8c1.8,4.7,8.8,5.2,12.9,6
					c6.3,1.1,12.3,1.1,18.1-1.8c1.7-0.9,0.2-3.5-1.5-2.6c-6.5,3.3-13.7,2.1-20.6,0.5c-2.7-0.6-2.8-0.5-4.5-3.4
					c-2.2-1.8-2.1-3.7,0.1-5.5c0.6-0.5,1.2-0.9,1.8-1.4c3.4-2.1,7.6-1.8,11,0.2C804.3,543,805.8,540.4,804.2,539.4L804.2,539.4z"/>
			</g>
		</g>
		<g>
			<g>
				<path class="st2" d="M787,551.7c-2,5.5,0.6,11.2,5.7,13.9c6.6,3.5,14.1,0.9,20.4-1.6c1.8-0.7,1-3.6-0.8-2.9
					c-4.2,1.7-8.8,3.5-13.4,3.1c-6-0.5-11.3-5.4-9-11.7C790.5,550.7,787.6,549.9,787,551.7L787,551.7z"/>
			</g>
		</g>
		<g>
			<g>
				<path class="st2" d="M791.7,564.3c-1.8,5.6,2.7,10.3,7.8,11.8c7.5,2.1,13.5-2.1,18.9-6.8c1.5-1.3-0.7-3.4-2.1-2.1
					c-3.4,2.9-6.9,6-11.5,6.4s-12.2-2.4-10.2-8.5C795.2,563.3,792.3,562.5,791.7,564.3L791.7,564.3z"/>
			</g>
		</g>
		<g>
			<g>
				<path class="st2" d="M809.1,544.7c3,1,7.6,3.7,5.2,7.4c-1,1.6,1.6,3.1,2.6,1.5c1.4-2.2,1.3-5.1-0.2-7.3
					c-1.5-2.4-4.2-3.7-6.9-4.5C808,541.2,807.2,544.1,809.1,544.7L809.1,544.7z"/>
			</g>
		</g>
		<g>
			<g>
				<path class="st2" d="M813.4,554.9c2.1,2.3,1.2,5.9-1.8,6.8c-1.8,0.5-1.1,3.4,0.8,2.9c5.3-1.5,6.8-7.9,3.2-11.9
					C814.2,551.4,812.1,553.5,813.4,554.9L813.4,554.9z"/>
			</g>
		</g>
		<g>
			<g>
				<path class="st2" d="M814.8,562.3c2,1.1,2.3,4.1,0.7,5.6c-1.4,1.3,0.7,3.5,2.1,2.1c3-2.9,2.4-8.3-1.3-10.3
					C814.7,558.8,813.1,561.4,814.8,562.3L814.8,562.3z"/>
			</g>
		</g>
		<g>
			<g>
				<path class="st2" d="M818.3,527.5c2.2,1,4.4,2.1,6.6,3.1c1.7,0.8,3.3-1.8,1.5-2.6c-2.2-1-4.4-2.1-6.6-3.1
					C818.1,524.1,816.6,526.7,818.3,527.5L818.3,527.5z"/>
			</g>
		</g>
		<g>
			<g>
				<path class="st2" d="M831.9,532.1c2.2-1.9,5.2-2.7,8.1-2c1.9,0.4,2.7-2.5,0.8-2.9c-4-0.9-7.9,0.1-11,2.8
					C828.3,531.3,830.4,533.4,831.9,532.1L831.9,532.1z"/>
			</g>
		</g>
		<g>
			<g>
				<path class="st2" d="M833.6,535.7c-2.8,8.3,0.5,17.5,8,22c1.7,1,3.2-1.6,1.5-2.6c-6.4-3.8-9-11.7-6.6-18.6
					C837.1,534.6,834.2,533.8,833.6,535.7L833.6,535.7z"/>
			</g>
		</g>
		<g>
			<g>
				<path class="st2" d="M812.5,574c6,4.3,12.5,5.2,19.6,3.8c9.9-1.8,19.4-2.7,29.5-1.6c1.9,0.2,1.9-2.8,0-3
					c-7.8-0.9-15.6-0.8-23.4,0.4c-8.9,1.4-16.2,3.5-24.2-2.2C812.4,570.3,810.9,572.9,812.5,574L812.5,574z"/>
			</g>
		</g>
		<g>
			<g>
				<path class="st2" d="M859,574.9c14.3,6.8,27.5,15.9,42.3,21.5c13.6,5.1,28.5,6.1,42.7,2.6c14.6-3.6,26.4-12.2,36.7-22.9
					c10.7-11,20.3-23.4,27.1-37.3c8-16.2,11.9-34.2,9.9-52.2c-0.2-1.9-3.2-1.9-3,0c2.2,19.8-2.9,39.5-12.7,56.7
					c-9.1,16-22,32-37.1,42.8c-15.2,10.8-34.9,14.4-53.1,10.3c-18.6-4.2-34.3-16.1-51.4-24.2C858.8,571.5,857.3,574.1,859,574.9
					L859,574.9z"/>
			</g>
		</g>
		<path class="st8" d="M1009.6,475.7c-3.9,0.2-3.4,16.8-8.1,33.8c-6.9,24.6-26.7,56.9-55.8,66.8c-20.6,7-41.4,1.2-74.5-8.1
			c-10.5-2.9-29-9-54.6-10.6c-21.1-1.3-26.3,1.7-26.5,3.3c-0.1,1,1.8,1.7,2.9,4.9c0.9,2.7-0.1,3.6,0.8,5.3c1.6,3.1,6.4,3.5,8.1,3.7
			c4.2,0.4,7.6-1.1,9.4-2c1.9,0.9,4.9,2.1,8.6,2.9c7.2,1.5,11.3,0.1,20.4-0.8c9.4-0.9,15.6-1.5,22.4,0.4c6.5,1.8,9.5,4.8,15.1,8.6
			c1.7,1.1,17.7,11.8,37.5,15.1c6.2,1,20.4,3.2,36.2-2.9c9-3.4,14.7-8.1,21.2-13.4c4.1-3.4,22.4-19,35.8-48.1
			c5.9-12.7,10.7-23.4,9.4-37.5C1016.8,486.8,1012.9,475.5,1009.6,475.7z"/>
		<path class="st7" d="M818.2,565.3c4.8-2.4,10.4-0.4,12.6,0.4c12.5,4.3,13.7,1.3,32.6,4.1c15.6,2.3,16.2,6.8,36.7,13.4
			c19.7,6.4,35.6,11.5,51.3,6.5c22.3-7.1,32.6-29.6,33.4-28.9c0.8,0.6-8.2,22.4-29.7,32.6c-19.5,9.3-39.8,4.6-45.6,3.3
			c-9.4-2.2-17-5.8-25.3-9.8c-9.7-4.6-17.3-9.4-22.8-13c-7-0.3-12.5,0.3-16.3,0.8c-9.3,1.4-13.2,3.5-20.8,2.4
			c-2-0.3-10.3-1.5-11-5.3C812.9,569.3,815.6,566.6,818.2,565.3z"/>
	</g>
	<g id="torso">
		<path class="st1" d="M995.1,467.9c-2.7,3.3-6.2,8.8-8.8,52.5c-1.4,24.2-2.8,49.6-0.7,86.9c0.9,15.2,2.6,36,6.1,60.6
			c11.2,6.4,31.6,15.9,58.6,17.5c43.3,2.6,74.9-17,85.5-24.2c-5.4-10.7-12.8-27.3-17.5-48.5c-5.8-26-3-37.5-6.1-69.4
			c-4.1-42.2-6.1-63.3-18.9-76.1C1068.8,442.6,1015,443.4,995.1,467.9z"/>
		<path class="st9" d="M1049.6,449.9c7.1,10.6,16.2,26.3,23.4,46.7c3.1,8.9,18.5,54.7,7.3,113.6c-5.9,31.3-17.4,56.5-28.4,75.1
			c7.7,0.5,16.7,0.4,26.6-0.9c26.3-3.6,46-14.5,57.7-22.5c-3.7-6.8-8.4-16.4-12.4-28.4c-0.8-2.6-4.7-14.3-7.3-32.5
			c-1.8-12.4-1.5-16.5-2.7-36.7c-0.3-4.7-1.5-23.8-4.1-45.8c-3.8-32.2-6.7-39.2-11.5-45.4c-6.8-8.8-15.4-13.5-19.2-15.6
			C1067,451.3,1055.8,450.1,1049.6,449.9z"/>
		<path class="st9" d="M1109.8,525c-1.5,16.2-3.5,32.9-5.9,50.1c-5.5,38.8-12.8,74.9-21.1,108c6.8-0.9,15.5-2.7,25-6.4
			c12.4-4.8,21.7-11.2,28-16.2c-13.3-23.4-17.9-43-19.6-57c-1.7-14.1-1.1-27.7-4.4-60.9C1111,535.2,1110.3,529.1,1109.8,525z"/>
	</g>
	<g id="head">
		<path class="st3" d="M954.3,348.9c-2,4.9-1.9,10.7-1.9,22.4c0,8.3,0.1,19.9,4.4,33.6c3.3,10.6,6.5,21.2,16.4,30.6
			c2.8,2.7,14.9,14.2,32,14.2c3.3,0,6.1-0.4,7.9-0.8c0.8,3,2.5,7.2,5.7,11.5c1.7,2.2,3.4,3.9,4.9,5.2c2.4,0,8.5-0.4,14.8-4.4
			c6-3.9,8.8-9,9.8-11.2c-1.8-1.8-6.5-7.1-6.8-14.8c-0.1-2.1,0.2-3.9,0.5-5.5c3.3-4.2,6.8-9.7,9.8-16.4c1.5-3.3,2.6-6.4,3.6-9.3
			c1.5,0.4,4.5,0.9,7.4-0.5c3.1-1.6,4.2-4.7,5.5-8.5c1.9-5.6,4-11.9,1.4-17.5c-2.5-5.3-6.4-4.1-9.8-9c-5.2-7.3-0.1-14.7-2.2-22.7
			c-3.2-12.3-21-17.6-27.9-19.7C1001.5,317.7,963.1,327.1,954.3,348.9z"/>
		<path class="st10" d="M951.7,363.3c2.5,0.4,4.1-3.5,8-7.4c4-3.9,10.7-8,22.7-9.1c9.8-1,19.6-2.1,29.4-3.1c3.1,0.2,10.2,1,17.3,5.9
			c5.7,4,8.8,8.8,10.3,11.4c3.1,0.1,6.1,0.3,9.2,0.4c0.6,3.7,1.3,7.4,1.9,11.1c0.4-0.4,5.8-5.2,11.4-3.4c4.5,1.4,6.4,6.2,7.2,8.4
			c2.5,6.1,0.8,11,2.3,11.4c1.8,0.6,5.3-6,5.7-6.9c0.9-1.7,3.8-7.6,4.6-16.8c0.6-7.5,1-12.5-1.9-17.2c-1-1.6-2-2.6-2.3-4.6
			c-0.5-3.8,2.5-5.9,4.2-9.5c0.9-1.9,1.1-3.7-1.5-17.5c-2.8-14.8-3.8-16.8-5.3-17.2c-2-0.4-3.8,2.3-6.1,4.6
			c-4,4.1-10.9,8.6-23.7,10.3c0-4.5-0.6-8.1-1.1-10.7c-0.9-4-1.4-4-4.6-13.4c-1.8-5.3-2.2-7.5-3.4-7.6c-2-0.2-2.7,4.9-7.4,6.7
			c-2.1,0.8-2.9,0.1-5.7,0.5c-2.5,0.3-5.9,1.4-9.8,4.7c0,0-6,4.1-16,9.2c-11.1,5.6-14.8-0.5-26.3,4.6c-8.6,3.8-13.8,10.6-16,13.7
			s-8.4,12.1-8.4,24.5C946.2,353.4,948.2,362.8,951.7,363.3z"/>
		<g>
			<g>
				<path class="st2" d="M951.8,367.3c-1.7,17,1.1,34.3,8.3,49.8c6.1,13.1,15.8,26.1,29.8,31.3c14.3,5.3,30.7,1.4,42.6-7.6
					c12.1-9.2,19.7-22.9,24.2-37.2c0.6-1.8-2.3-2.6-2.9-0.8c-4.3,13.6-11.5,26.7-23,35.5c-11.9,9-28.6,12.8-42.5,6.2
					c-12.5-5.9-20.9-18.2-26.3-30.5c-6.5-14.7-8.8-30.8-7.2-46.7C955,365.4,952,365.4,951.8,367.3L951.8,367.3z"/>
			</g>
		</g>
		<g>
			<g>
				<path class="st2" d="M1052.6,374.8c1.4-6.1,8.5-5.9,12.1-2c3.1,3.2,3.8,7.9,3.9,12.2c0.2,7.2-2.4,20.5-12.7,17.2
					c-1.8-0.6-2.6,2.3-0.8,2.9c14.6,4.7,17.8-15.6,16-25.4c-1.1-5.7-4.8-11.8-11.1-12.6c-4.8-0.6-9.2,2.4-10.3,7.1
					C1049.3,375.8,1052.2,376.6,1052.6,374.8L1052.6,374.8z"/>
			</g>
		</g>
		<g>
			<g>
				<path class="st2" d="M988.9,368.5c-2.3,4.8-4.6,9.5-6.8,14.3c-1.1,2.5-2.3,5-2.1,7.9c0.5,5.9,5.7,9.8,11.1,11.1
					c1.9,0.5,2.7-2.4,0.8-2.9c-6.5-1.6-10.5-6.8-7.7-13.4c2.2-5.2,4.8-10.3,7.3-15.5C992.3,368.3,989.7,366.8,988.9,368.5
					L988.9,368.5z"/>
			</g>
		</g>
		<g>
			<g>
				<path class="st2" d="M974.3,381.6c-0.6-0.7-1-1.6-1.1-2.5c-0.1-0.4-0.1-0.9,0-1.3c0-0.3,0.5-1.2,0.5-1.4c-0.2,0-0.3,0.1-0.5,0.1
					c0.1,0.3,0.1,0.6,0.1,0.9c0,0.5,0,1,0,1.5c-0.1,1.3-0.4,2.5-0.9,3.7c0.8-0.2,1.7-0.4,2.5-0.7c-1-0.9-1.4-1.8-1.3-3.2
					c0.2-1.9-2.8-1.9-3,0c-0.2,2,0.6,4,2.2,5.3c0.9,0.8,2.1,0.4,2.5-0.7c0.9-2.3,1.3-4.9,0.9-7.3c-0.3-1.7-1.7-3.4-3.5-2.6
					c-1.7,0.7-2.4,3.1-2.4,4.9c0,2,0.7,3.9,2.1,5.4C973.5,385.2,975.6,383,974.3,381.6L974.3,381.6z"/>
			</g>
		</g>
		<g>
			<g>
				<path class="st2" d="M1012.5,380.1c-0.3-0.8-0.5-1.5-0.5-2.3c0-0.4,0.1-0.8,0.2-1.2c0-0.1,0.1-0.3,0.1-0.4
					c0.2-0.3,0.1-0.3-0.4,0c0,0.1,0.2,0.6,0.2,0.8c0,0.4,0,0.8-0.1,1.2c-0.2,0.9-0.6,1.7-1.1,2.4c0.8,0.1,1.6,0.2,2.4,0.3
					c-1.2-1.7-1.1-3.7,0.2-5.4c-0.8,0.1-1.6,0.2-2.4,0.3c1,1.2,0.3,3-0.9,3.6c0.7,0.3,1.5,0.6,2.2,0.9c-0.3-0.8-0.5-1.5-0.6-2.4
					c0-0.5,0.1-1,0.1-1.5c0-0.2,0.1-0.3,0.1-0.5c-0.3-0.4-0.4-0.5-0.2-0.2c0.3,0.8,0.5,1.4,0.4,2.3c0,0.4-0.2,1-0.2,1.3
					c0,0.2-0.1,0.3-0.1,0.5c0.7-0.1,0.8-0.3,0.4-0.7c-1.1-1.6-3.7-0.1-2.6,1.5s3.5,3,4.8,0.7c1-1.9,1-5.2,0-7
					c-1.1-1.9-3.7-2.5-5-0.4c-1.2,2-0.9,5-0.1,7.1c0.4,0.9,1.3,1.4,2.2,0.9c3.1-1.6,3.7-5.7,1.5-8.3c-0.7-0.8-1.8-0.4-2.4,0.3
					c-1.8,2.4-1.9,5.9-0.2,8.4c0.5,0.7,1.7,1.1,2.4,0.3c1.8-2.3,3.7-7.7,0.1-9.4c-1.6-0.7-3,0.3-3.5,1.8c-0.7,1.9-0.7,4,0.1,5.8
					C1010.4,382.6,1013.3,381.9,1012.5,380.1L1012.5,380.1z"/>
			</g>
		</g>
		<g>
			<g>
				<path class="st2" d="M980.5,363.3c-5.2-3.4-12-1.8-15.3,3.3c-1,1.6,1.6,3.1,2.6,1.5c2.4-3.8,7.4-4.7,11.2-2.3
					C980.6,366.9,982.1,364.3,980.5,363.3L980.5,363.3z"/>
			</g>
		</g>
		<g>
			<g>
				<path class="st2" d="M1008.1,364.1c4.6-3.9,11.7-2.7,13.8,3.2c0.6,1.8,3.5,1,2.9-0.8c-2.9-8.1-12.5-10-18.8-4.5
					C1004.6,363.2,1006.7,365.3,1008.1,364.1L1008.1,364.1z"/>
			</g>
		</g>
		<g>
			<g>
				<path class="st2" d="M1011.8,450c1.6,5.9,4.7,11.2,9.2,15.4c1.4,1.3,3.5-0.8,2.1-2.1c-4.1-3.9-7-8.6-8.4-14.1
					C1014.1,447.3,1011.2,448.1,1011.8,450L1011.8,450z"/>
			</g>
		</g>
		<g>
			<g>
				<path class="st2" d="M1039.4,431.5c0.9,6.7,3.2,12.8,7.1,18.4c1.1,1.6,3.7,0.1,2.6-1.5c-3.6-5.1-5.9-10.7-6.7-16.9
					C1042.2,429.7,1039.2,429.6,1039.4,431.5L1039.4,431.5z"/>
			</g>
		</g>
		<g>
			<g>
				<path class="st2" d="M1021.2,465.9c10.8,3.7,23.2-5,27.2-14.9c0.7-1.8-2.2-2.6-2.9-0.8c-3.4,8.4-14.5,15.9-23.5,12.8
					C1020.2,462.4,1019.4,465.3,1021.2,465.9L1021.2,465.9z"/>
			</g>
		</g>
		<g>
			<g>
				<path class="st2" d="M1013.6,451.6c7.2-1.2,13.6-4.6,18.7-9.8c1.3-1.4-0.8-3.5-2.1-2.1c-4.8,4.9-10.7,7.9-17.4,9.1
					C1010.9,449.1,1011.7,451.9,1013.6,451.6L1013.6,451.6z"/>
			</g>
		</g>
		<g>
			<g>
				<path class="st2" d="M1015.3,453.6c8.4-2.4,17.9-9,21.7-17c0.8-1.7-1.8-3.3-2.6-1.5c-3.5,7.3-12.2,13.5-20,15.7
					C1012.6,451.3,1013.4,454.1,1015.3,453.6L1015.3,453.6z"/>
			</g>
		</g>
		<g>
			<g>
				<path class="st11" d="M952.3,355.9c-5.7-6.7-3.4-18.7-0.6-26.3c3.4-9.3,10.1-16.3,19.8-19c8.5-2.4,17.6-2.1,25.9-5.3
					c9.2-3.6,15.9-13.5,26.5-12.8c1.9,0.1,1.9-2.9,0-3c-12.1-0.8-19.5,10.8-30.4,13.9c-10.5,3.1-22.2,2-31.7,8.1
					c-7.5,4.8-12.2,12.9-14.3,21.4c-2.1,8.1-3.2,18.4,2.6,25.1C951.4,359.5,953.6,357.4,952.3,355.9L952.3,355.9z"/>
			</g>
		</g>
		<g>
			<g>
				<path class="st11" d="M984.3,344.6c-0.8-7.3,0.8-14.5,5.1-20.5c4.8-6.7,12.1-9.7,19.3-13.1c6-2.8,11.5-6.3,15.8-11.4
					c4.2-4.8,6.3-11.9,11.6-15.6c-0.7-0.2-1.4-0.4-2.1-0.5c5,11.7,15,26,6,38.4c-1.1,1.6,1.5,3.1,2.6,1.5c9.7-13.4-0.6-28.7-6-41.4
					c-0.3-0.7-1.4-1-2.1-0.5c-5.8,3.9-7.8,10.9-12.3,16c-5.9,6.9-13.6,10-21.5,13.8c-13,6.3-21.3,18.5-19.6,33.3
					C981.5,346.5,984.6,346.5,984.3,344.6L984.3,344.6z"/>
			</g>
		</g>
		<g>
			<g>
				<path class="st11" d="M1012.6,343.2c6.4-11.9,16.9-21.2,29.7-25.7c6-2.1,12.3-3.3,18-6.2c5.5-2.7,10.2-6.5,14.3-11
					c-0.8-0.1-1.6-0.2-2.4-0.3c3.7,7.9,7.2,16.8,7.9,25.5c0.7,9.4-4.5,16.6-10.2,23.5c-1.2,1.5,0.9,3.6,2.1,2.1
					c5.7-7,11.3-14.4,11.1-23.8c-0.2-9.9-4.3-20-8.4-28.8c-0.4-0.9-1.7-1-2.4-0.3c-5.2,5.6-11.4,10-18.6,12.6
					c-6.1,2.2-12.5,3.4-18.4,6.3c-10.9,5.3-19.8,14-25.5,24.6C1009.1,343.4,1011.7,344.9,1012.6,343.2L1012.6,343.2z"/>
			</g>
		</g>
		<g>
			<g>
				<path class="st11" d="M1075.6,343.8c7.2,14,5.9,30.6-3.3,43.3c-1.1,1.6,1.5,3.1,2.6,1.5c9.9-13.6,11-31.4,3.3-46.3
					C1077.3,340.6,1074.7,342.1,1075.6,343.8L1075.6,343.8z"/>
			</g>
		</g>
		<path class="st12" d="M1038.4,360c0.3,4.9,0.5,12,0,20.5c-1,15.2-1.8,28.3-8.5,40.6c-8.4,15.3-22.8,23.3-32.4,27.3
			c4.6,0.3,12,0.1,20.5-2.7c7-2.3,12.3-5.6,15.7-8.2c1.9,7.5,3.9,15,5.8,22.5c3-3.6,5.9-7.3,8.9-10.9c-2.6-5.2-5.2-10.5-7.8-15.7
			c2.1-3.4,4.1-7,6.1-10.9c3.6-6.8,6.5-13.3,8.9-19.5c1.3,0.5,5.1,1.8,8.5,0c3.8-2,4.7-6.5,5.5-10.6c0.8-4.3,3-15.8-3.8-20.8
			c-2.8-2.1-7.7-3.5-11.6-1.4c-2.1,1.2-3.2,3-3.8,4.1c-0.5-4.1-0.9-8.2-1.4-12.3C1045.5,361.4,1041.9,360.7,1038.4,360z"/>
		<path class="st13" d="M1015.5,343c5.6-6.1,12.3-14.8,18.1-26.3c4.1-8.2,6.8-15.8,8.5-22.2c4.5,8.1,4.1,14.6,3.8,17.4
			c-1.7,12.8-13.3,20.8-19.8,25.3C1022,340,1018.2,341.8,1015.5,343z"/>
		<path class="st14" d="M1036,354.2c5.7-2,12.4-4.9,19.5-9.2c12.9-7.9,21.6-17.3,27-24.2c0.7,4.2,1.4,12.5-3.1,20.1
			C1072.2,353.3,1054.5,359.3,1036,354.2z"/>
		<path class="st15" d="M970.5,348.8c-0.2-4.2,0.1-10.2,2-17.1c4.5-15.8,15.7-27.6,17.4-26.6C991.3,305.9,987.9,315.3,970.5,348.8z"
			/>
		<g>
			<g>
				<path class="st2" d="M975.4,413.2c14.9,0.7,29.4-2.3,42.8-8.9c1.3-0.6,0.2-2.6-1.1-1.9c-13,6.4-27.2,9.3-41.6,8.6
					C973.9,410.9,974,413.1,975.4,413.2L975.4,413.2z"/>
			</g>
		</g>
		<g>
			<g>
				<path class="st2" d="M976.9,413.6c2,3.6,3.4,7.5,4.2,11.5c0.3,1.4,2.4,0.8,2.2-0.6c-0.8-4.2-2.3-8.3-4.4-12.1
					C978.2,411.2,976.2,412.4,976.9,413.6L976.9,413.6z"/>
			</g>
		</g>
		<g>
			<g>
				<path class="st2" d="M981.3,425.2c6,5.8,15.7,2.9,22.1-0.8c7.7-4.3,13.3-11.5,15.2-20.1c0.3-1.4-1.9-2-2.2-0.6
					c-1.6,7.1-5.7,13.1-11.7,17.3c-5.7,3.9-16,8.3-21.8,2.6C981.9,422.6,980.3,424.2,981.3,425.2L981.3,425.2z"/>
			</g>
		</g>
		<g>
			<g>
				<path class="st2" d="M979.9,417.7c6.8,1.8,14.6-0.2,21.1-2.2c6.3-1.9,12.1-5,16.5-10c1-1.1-0.6-2.7-1.6-1.6
					c-4.2,4.7-9.5,7.6-15.5,9.4c-6.1,1.8-13.6,3.9-19.9,2.2C979.1,415.2,978.5,417.4,979.9,417.7L979.9,417.7z"/>
			</g>
		</g>
		<g>
			<g>
				<path class="st2" d="M980.9,418.8c0.8,1.9,1.6,3.8,2.4,5.7c0.5,1.2,2.5,0.3,2.1-0.9c-0.7-1.8-1.2-3.5-1.6-5.4
					c-0.5,0.5-0.9,0.9-1.4,1.4c2.4,0.4,4.8,0.6,7.3,0.6c1.2,0,1.6-2,0.3-2.2c-2.3-0.4-4.1-0.3-6.4,0.4c-0.7,0.2-1.1,1-0.7,1.7
					c0.6,0.9,1.3,1.9,1.9,2.8c0.8,1.2,2.6,0.2,1.9-1.1c-0.3-0.9-0.6-1.8-0.9-2.6c-0.7,0.3-1.4,0.6-2.1,0.9c1,1.3,1.4,2.7,1,4.2
					c0.7-0.2,1.4-0.4,2.1-0.6c-1.4-2.3-2.6,0.4-2.9,1.1c-0.3,0.9,0.9,1.9,1.7,1.3c8.2-6.2,17.8-9.3,27.5-12.3
					c1.4-0.4,0.8-2.6-0.6-2.2c-9.9,3-19.7,6.2-28,12.5c0.6,0.4,1.1,0.8,1.7,1.3c0.4-0.9,1.6-1.1,1.8-2.5c0.2-1.2-0.3-3-1.6-3.4
					c-3.6-1.2-2.3,3.9-1.4,5.3c0.6,1,2,0.5,2.1-0.6c0.2-2.1-0.2-3.6-1.3-5.3c-0.7-1-2.4-0.4-2.1,0.9c0.4,1.7,0.4,1.6,1.1,3.2
					c0.6-0.4,1.3-0.8,1.9-1.1c-0.6-0.9-1.3-1.9-1.9-2.8c-0.2,0.6-0.4,1.1-0.7,1.7c1.7-0.7,3.4-0.8,5.2-0.4c0.1-0.7,0.2-1.5,0.3-2.2
					c-2.3,0-4.3-0.1-6.7-0.5c-0.9-0.2-1.6,0.5-1.4,1.4c0.4,1.9,0.9,3.6,1.6,5.4c0.7-0.3,1.4-0.6,2.1-0.9c-0.8-1.9-1.6-3.8-2.4-5.7
					C982.3,416.3,980.3,417.5,980.9,418.8L980.9,418.8z"/>
			</g>
		</g>
		<g>
			<g>
				<path class="st2" d="M987.3,422.4c3.5-2.1,7.1-3.7,11-5.1c-0.3-0.7-0.6-1.4-0.9-2.1c-3.5,1.6-7,3.2-10.4,4.7
					c-1.1,0.5-0.3,2.5,0.9,2.1c9.4-3.7,18.7-7.5,27.2-13.1c-0.6-0.4-1.1-0.8-1.7-1.3c-1.3,3.5-7.1,3.9-10.1,5
					c-2.5,0.9-4.9,2.1-7.4,3c-3.5,1.2-7.6,1-10.3,4c-1,1.1,0.6,2.7,1.6,1.6c2.2-2.5,6.3-2.4,9.3-3.4s5.9-2.5,9-3.5
					c4.2-1.3,8.4-1.4,10.1-6c0.3-0.9-0.9-1.8-1.7-1.3c-8.3,5.4-17.5,9.2-26.7,12.8c0.3,0.7,0.6,1.4,0.9,2.1c3.5-1.6,7-3.2,10.4-4.7
					c1.2-0.5,0.3-2.5-0.9-2.1c-4,1.4-7.8,3.2-11.5,5.3C984.9,421.2,986.1,423.2,987.3,422.4L987.3,422.4z"/>
			</g>
		</g>
		<g>
			<g>
				<path class="st2" d="M1014.3,411.4c0-0.1-0.1-0.2-0.1-0.3S1014.2,411.1,1014.3,411.4c-0.2,0-0.4,0.2-0.5,0.3h0.1
					c-0.3,0-0.6,0.1-0.9,0.1c-0.5-0.1-0.5-1-0.6-0.4c0,0.2,0,0.3,0.1,0.5c0.1,0.4,0.3,0.6,0.7,0.9c0.5,0.4,1.3,0.1,1.5-0.4
					c0.3-0.6,0.1-1.2-0.4-1.5c0,0-0.1,0-0.1-0.1c0.1,0.1,0.3,0.3,0.4,0.4c0.1,0.3,0.1,0.3,0.1,0.1c0-0.1,0-0.2,0-0.2
					c0-0.3-0.1-0.6-0.2-0.8c-0.3-0.4-0.7-0.7-1.2-0.7c-1.3,0-1.5,1.5-1.1,2.4c0.2,0.6,0.7,1,1.4,0.8
					C1014.1,412.6,1014.6,411.9,1014.3,411.4L1014.3,411.4z"/>
			</g>
		</g>
		<g>
			<g>
				<path class="st2" d="M1014.5,402.3c1.9,0.8,3.5,2.1,4.6,3.9c0.7,1.2,2.7,0.1,1.9-1.1c-1.4-2.3-3.4-4-5.9-4.9
					C1013.7,399.6,1013.1,401.8,1014.5,402.3L1014.5,402.3z"/>
			</g>
		</g>
		<g>
			<g>
				<path class="st2" d="M987.2,426.8c7.9-5.6,16.6-9.5,26-11.6c1.4-0.3,0.8-2.5-0.6-2.2c-9.7,2.1-18.5,6.1-26.6,11.8
					C984.9,425.7,986,427.7,987.2,426.8L987.2,426.8z"/>
			</g>
		</g>
		<g>
			<g>
				<path class="st2" d="M985.2,425c9.8-0.5,18.9-3.5,27-9c1.2-0.8,0.1-2.8-1.1-1.9c-7.8,5.3-16.5,8.3-25.9,8.7
					C983.7,422.9,983.7,425.1,985.2,425L985.2,425z"/>
			</g>
		</g>
		<g>
			<g>
				<path class="st2" d="M994.3,422.5c5.5-1.2,10.6-3.3,15.4-6.3c1.2-0.8,0.1-2.7-1.1-1.9c-4.6,2.9-9.5,4.9-14.8,6.1
					C992.3,420.6,992.9,422.8,994.3,422.5L994.3,422.5z"/>
			</g>
		</g>
		<g>
			<g>
				<path class="st2" d="M987.4,426.4c8-0.2,15.4-2.5,22-7c1.2-0.8,0.1-2.8-1.1-1.9c-6.3,4.3-13.3,6.5-20.9,6.7
					C986,424.2,986,426.5,987.4,426.4L987.4,426.4z"/>
			</g>
		</g>
		<g>
			<g>
				<path class="st2" d="M987.4,426.2c-0.1,1.7,1.5,1.9,2.8,1.7c3-0.4,5.9-1.1,8.8-1.8c1.4-0.4,0.8-2.5-0.6-2.2
					c-1.5,0.4-3,0.7-4.6,1c-0.7,0.1-4.1,0.3-4.2,1.2C989.8,424.8,987.5,424.8,987.4,426.2L987.4,426.2z"/>
			</g>
		</g>
	</g>
	<g id="hand_left">
		<path class="st3" d="M1006.5,437.9c1-2.8,10-2.2,17.8-1.2c0-1.5,0.3-3.7,1.2-6.1c0.7-1.9,1.8-3.8,5.8-8.2c4.3-4.7,6.5-7,9.3-8.7
			c2.1-1.3,5.6-3,10.5-3.8c2,0.7,4.1,1.4,6.1,2c0.6-1.9,1.8-5.5,4.1-12.5c1.5-4.7,2.4-7.1,4.4-7.9c2-0.7,4.7,0,6.1,1.7
			c2,2.5,0.2,6.1-0.9,12.2c-0.6,3.5-0.1,2.9-0.3,16c-0.2,13.4-0.7,13.3-0.6,18.9c0.1,5.2,0.8,12.6,3.2,21.5c2.2-1,5.7-2.1,9.9-2
			c9.8,0.1,16.7,6.5,21.8,11.4c10,9.5,14.3,20,17.2,27.4c5.6,14.3,6.3,26.2,6.4,31.4c0.1,8.1,0.3,15.7-3.8,24.5
			c-1.3,2.8-4.9,10.3-13.1,16c-3.4,2.4-9.8,6.8-18.1,6.1c-4.8-0.4-9.1-2.4-13.7-6.1c-15.4-12.5-22.5-35.2-24.7-43.1
			c-4.2-14.4-8.8-35.3-9.6-61.4c-2.2-0.1-4.8-0.6-7.6-1.7c-10.3-4.3-14.3-14.6-15.1-17.2c-2.1,0.1-9.6,0-14.3-5.2
			C1007.5,440.7,1006.1,439.2,1006.5,437.9z"/>
		<g>
			<g>
				<path class="st2" d="M1020.4,444.9c-5.3-0.4-11.4-2.4-12.8-8.2c-0.3,0.6-0.7,1.2-1,1.8c7.7-1.6,15.4,0.7,23.1-0.4
					c1.9-0.3,1.1-3.2-0.8-2.9c-7.7,1.1-15.4-1.2-23.1,0.4c-0.8,0.2-1.2,1.1-1,1.8c1.7,7.2,9,9.9,15.7,10.4
					C1022.4,448,1022.4,445,1020.4,444.9L1020.4,444.9z"/>
			</g>
		</g>
		<g>
			<g>
				<path class="st2" d="M1026.1,434.2c-1.2-7.1,9.7-6.7,13.8-5.6c1.9,0.5,2.7-2.4,0.8-2.9c-6.7-1.8-19.1-0.5-17.5,9.2
					C1023.5,436.9,1026.4,436.1,1026.1,434.2L1026.1,434.2z"/>
			</g>
		</g>
		<g>
			<g>
				<path class="st2" d="M1030.4,427.3c0.9-3.5,2.8-6.7,6.2-8.3c4-1.8,8,0,11.7,1.6c1.7,0.8,3.3-1.8,1.5-2.6
					c-4.6-2.1-9.5-4.1-14.4-1.8c-4.2,1.9-6.8,5.9-7.9,10.3C1027.1,428.4,1030,429.2,1030.4,427.3L1030.4,427.3z"/>
			</g>
		</g>
		<g>
			<g>
				<path class="st2" d="M1040.9,415.3c-0.2-0.2,3.2-3,3.7-3.3c1.4-0.7,3-1.1,4.6-1.1c3.9,0,7.4,1.9,10.5,3.9c1.6,1,3.1-1.5,1.5-2.6
					c-5-3.2-11.1-5.7-17-3.3c-2.5,1-8.5,5.5-5.5,8.6C1040.1,418.8,1042.2,416.7,1040.9,415.3L1040.9,415.3z"/>
			</g>
		</g>
		<g>
			<g>
				<path class="st2" d="M1070.6,440.6c1.2-8.5,1.6-16.9,1-25.5c-0.3-4.9,0.2-8.7,1.4-13.5c0.6-2.5,1.1-5.1,0.4-7.6
					c-1.1-3.4-4.9-6.2-8.5-4.4c-2.3,1.2-2.9,3.9-3.7,6.2c-1.5,4.3-2.9,8.7-4.3,13c-0.6,1.8,2.3,2.6,2.9,0.8c0.8-2.5,1.6-5,2.5-7.4
					c0.5-1.5,1.3-6.5,2.5-7.4c5-0.6,7,0.8,5.8,4.4c-0.3,1.2-0.6,2.3-1,3.5c-0.5,1.9-1,3.7-1.2,5.6c-0.4,4.8,0.5,9.8,0.5,14.7
					c0,5.7-0.4,11.3-1.2,16.9C1067.5,441.7,1070.4,442.5,1070.6,440.6L1070.6,440.6z"/>
			</g>
		</g>
		<g>
			<g>
				<path class="st2" d="M1018.8,448.1c5.2,0.4,6.5,5.8,8.9,9.4c1.2,1.9,2.7,3.6,4.5,5c3.5,2.8,7.6,4.3,12.1,4.7
					c1.9,0.2,1.9-2.8,0-3c-7.6-0.7-12.4-5.1-15.9-11.5c-2.2-4-4.8-7.2-9.6-7.5C1016.8,445,1016.9,448,1018.8,448.1L1018.8,448.1z"/>
			</g>
		</g>
		<g>
			<g>
				<path class="st2" d="M1043.8,465.9c3.1,10.7,3.4,21.7,4.3,32.7c0.8,9.3,2.3,18.6,4.9,27.5c5.1,17.2,13.9,33.1,26.6,45.9
					c1.4,1.4,3.5-0.8,2.1-2.1c-13.1-13.2-22-29.8-26.7-47.7c-5-18.8-2.9-38.5-8.3-57.1C1046.1,463.3,1043.2,464.1,1043.8,465.9
					L1043.8,465.9z"/>
			</g>
		</g>
		<g>
			<g>
				<path class="st2" d="M1067.7,439.4c1.5,16.7,6.4,33,14.6,47.6c8,14.2,20.3,26.5,23.1,43.1c0.3,1.9,3.2,1.1,2.9-0.8
					c-2.5-15.1-12.8-26.6-20.7-39.2c-9.5-15.3-15.2-32.7-16.9-50.6C1070.5,437.5,1067.5,437.5,1067.7,439.4L1067.7,439.4z"/>
			</g>
		</g>
		<g>
			<g>
				<path class="st2" d="M1074.6,462.6c14.9-4.8,29.6,7.2,37.4,18.8c8.2,12.2,11.9,27.2,13.6,41.7c1.6,14.2,0.5,29.7-9,41.1
					c-8.8,10.6-25.1,14.8-36.2,5.2c-1.5-1.3-3.6,0.9-2.1,2.1c10.5,9.1,26,7.8,36.3-1c12.6-10.7,15.7-28.1,14.4-43.8
					c-1.4-17.1-5.7-35.4-16.1-49.4c-8.7-11.6-23.9-22.5-39-17.7C1072,460.3,1072.7,463.2,1074.6,462.6L1074.6,462.6z"/>
			</g>
		</g>
		<path class="st16" d="M1068.1,395c-5.3,2-4.9,15.6-4.5,25.4c1.4,29.1,2.1,43.7,7.8,66.1c8.2,31.9,15.7,40.2,19.8,44.1
			c5.9,5.6,17.2,13.7,22,10.5c7.6-5.1-4.5-35.5-7.5-42.9c-10.1-25.2-12.3-33.6-19.8-36.2c-4.5-1.5-8.9-0.9-12,0
			c-4.3-9.2-5-16.6-4.9-21.7c0.1-4.3,0.8-4.3,1.1-10.8c0.6-11.8-1.5-12.5-0.4-20.2c1.1-7.5,4-12,1.9-13.8
			C1070.9,394.5,1069.2,394.6,1068.1,395z"/>
		<path class="st16" d="M1076.7,467.1c7.1,6.9,12,13.5,15.3,18.7c8.1,12.5,11.5,23.7,12.7,28c1.7,6.1,2.5,11.4,3,15.3
			c-1.7-5.2-4.9-13-10.5-21.7c-4.5-7-7.4-9.4-11.2-15.7C1082.9,486.5,1079,478.5,1076.7,467.1z"/>
	</g>
</g>
</svg>
